<svg width="50" height="50" viewBox="0 0 50 50" fill="none" xmlns="http://www.w3.org/2000/svg">
<path d="M8.16016 14.0586V11.252C8.16016 10.9287 8.42285 10.666 8.74609 10.666C9.06934 10.666 9.33203 10.9287 9.33203 11.252V14.0586C9.33203 14.3818 9.06934 14.6445 8.74609 14.6445C8.42285 14.6445 8.16016 14.3818 8.16016 14.0586ZM8.74609 20.5674C9.06934 20.5674 9.33203 20.3047 9.33203 19.9814V17.1748C9.33203 16.8516 9.06934 16.5889 8.74609 16.5889C8.42285 16.5889 8.16016 16.8516 8.16016 17.1748V19.9814C8.16016 20.3057 8.42285 20.5674 8.74609 20.5674ZM11.6465 20.5674C11.9697 20.5674 12.2324 20.3047 12.2324 19.9814V17.1748C12.2324 16.8516 11.9697 16.5889 11.6465 16.5889C11.3232 16.5889 11.0605 16.8516 11.0605 17.1748V19.9814C11.0605 20.3057 11.3232 20.5674 11.6465 20.5674ZM11.6465 14.6445C11.9697 14.6445 12.2324 14.3818 12.2324 14.0586V11.252C12.2324 10.9287 11.9697 10.666 11.6465 10.666C11.3232 10.666 11.0605 10.9287 11.0605 11.252V14.0586C11.0605 14.3818 11.3232 14.6445 11.6465 14.6445ZM30.6172 16.4971V14.8574C30.6172 14.1641 31.1816 13.5996 31.875 13.5996H33.5146C34.208 13.5996 34.7725 14.1641 34.7725 14.8574V16.4971C34.7725 17.1904 34.208 17.7549 33.5146 17.7549H31.875C31.1807 17.7549 30.6172 17.1904 30.6172 16.4971ZM31.7891 16.4971C31.7891 16.543 31.8291 16.583 31.875 16.583H33.5146C33.5605 16.583 33.6006 16.543 33.6006 16.4971V14.8574C33.6006 14.8115 33.5605 14.7715 33.5146 14.7715H31.875C31.8291 14.7715 31.7891 14.8115 31.7891 14.8574V16.4971ZM36.332 16.4971V14.8574C36.332 14.1641 36.8965 13.5996 37.5898 13.5996H39.2295C39.9229 13.5996 40.4873 14.1641 40.4873 14.8574V16.4971C40.4873 17.1904 39.9229 17.7549 39.2295 17.7549H37.5898C36.8955 17.7549 36.332 17.1904 36.332 16.4971ZM37.5039 16.4971C37.5039 16.543 37.5439 16.583 37.5898 16.583H39.2295C39.2754 16.583 39.3154 16.543 39.3154 16.4971V14.8574C39.3154 14.8115 39.2754 14.7715 39.2295 14.7715H37.5898C37.5439 14.7715 37.5039 14.8115 37.5039 14.8574V16.4971ZM30.6172 22.0332V20.3936C30.6172 19.7002 31.1816 19.1357 31.875 19.1357H33.5146C34.208 19.1357 34.7725 19.7002 34.7725 20.3936V22.0332C34.7725 22.7266 34.208 23.291 33.5146 23.291H31.875C31.1807 23.29 30.6172 22.7266 30.6172 22.0332ZM31.7891 22.0332C31.7891 22.0791 31.8291 22.1191 31.875 22.1191H33.5146C33.5605 22.1191 33.6006 22.0791 33.6006 22.0332V20.3936C33.6006 20.3477 33.5605 20.3076 33.5146 20.3076H31.875C31.8291 20.3076 31.7891 20.3477 31.7891 20.3936V22.0332ZM48.5352 28.1338C48.5352 28.457 48.2725 28.7197 47.9492 28.7197H44.6992V30.3311C44.6992 31.374 43.8506 32.2227 42.8076 32.2227H39.6387C39.3174 32.2227 39.0547 32.4121 38.9551 32.7178C38.7266 33.415 38.4414 34.1006 38.1084 34.7578C37.9629 35.0449 38.0137 35.3643 38.2412 35.5918L40.4834 37.834C40.8398 38.1904 41.0361 38.666 41.0361 39.1719C41.0361 39.6777 40.8398 40.1533 40.4834 40.5098L37.376 43.6172C37.0195 43.9736 36.5439 44.1699 36.0381 44.1699C35.5322 44.1699 35.0566 43.9736 34.7002 43.6172L32.458 41.375C32.2305 41.1475 31.9111 41.0967 31.624 41.2422C30.9678 41.5742 30.2812 41.8594 29.584 42.0889C29.2783 42.1895 29.0889 42.4512 29.0889 42.7725V45.9424C29.0889 46.9854 28.2402 47.834 27.1973 47.834H22.8027C21.7598 47.834 20.9111 46.9854 20.9111 45.9424V42.7725C20.9111 42.4512 20.7217 42.1885 20.416 42.0889C19.7188 41.8594 19.0322 41.5752 18.376 41.2432C18.0889 41.0977 17.7695 41.1484 17.542 41.376L15.2998 43.6182C14.9434 43.9746 14.4678 44.1709 13.9619 44.1709C13.4561 44.1709 12.9805 43.9746 12.624 43.6182L9.5166 40.5107C9.16016 40.1543 8.96387 39.6787 8.96387 39.1729C8.96387 38.667 9.16016 38.1914 9.5166 37.835L11.7588 35.5928C11.9863 35.3652 12.0371 35.0459 11.8916 34.7588C11.5586 34.1016 11.2744 33.415 11.0449 32.7188C10.9443 32.4131 10.6826 32.2236 10.3613 32.2236H7.19238C6.14941 32.2236 5.30078 31.375 5.30078 30.332V28.7207H2.05078C1.72754 28.7207 1.46484 28.458 1.46484 28.1348C1.46484 27.8115 1.72754 27.5488 2.05078 27.5488H5.30078V9.95605C5.30078 8.80469 6.23731 7.86816 7.38867 7.86816H13.0059C14.1572 7.86816 15.0938 8.80469 15.0938 9.95605V17.4336C15.5518 16.5791 16.0967 16.0244 16.7041 15.8076V4.17383C16.7041 3.06738 17.6045 2.16699 18.7109 2.16699H27.0039C28.1103 2.16699 29.0107 3.06738 29.0107 4.17383V10.7451H30.8926C30.6006 10.0254 30.7168 9.21289 30.7959 8.84668C31.2109 6.91504 31.8262 5.97559 32.6758 5.97461H32.6777C33.5234 5.97461 34.1377 6.9082 34.5566 8.83008C34.6377 9.20117 34.7578 10.0215 34.4717 10.7461H36.6426C36.3506 10.0264 36.4668 9.21387 36.5459 8.84766C36.9609 6.91602 37.5762 5.97656 38.4258 5.97559H38.4268C39.2725 5.97559 39.8867 6.90918 40.3057 8.83105C40.3867 9.20215 40.5068 10.0225 40.2207 10.7471H41.9531C42.6777 10.7471 43.2676 11.3369 43.2676 12.0615V20.7842C43.8145 21.5547 44.2568 22.6699 44.5576 24.0811C44.7344 24.9082 44.8984 26.4434 44.0605 27.5508H47.9492C48.2725 27.5479 48.5352 27.8105 48.5352 28.1338ZM39.3145 20.3936C39.3145 20.3477 39.2744 20.3076 39.2285 20.3076H37.5889C37.543 20.3076 37.5029 20.3477 37.5029 20.3936V22.0332C37.5029 22.0791 37.543 22.1191 37.5889 22.1191H38.5557C38.7783 21.5654 39.0332 21.0938 39.3145 20.7129V20.3936ZM43.4092 24.3232C42.8779 21.8359 41.9492 20.7227 41.2646 20.7227C40.5801 20.7227 39.6514 21.8359 39.1201 24.3232C38.8867 25.417 39.001 26.3516 39.4355 26.8857C39.707 27.2197 40.123 27.4287 40.6758 27.5098V25.1436C40.6758 24.8203 40.9385 24.5576 41.2617 24.5576C41.585 24.5576 41.8477 24.8203 41.8477 25.1436V27.5098C42.4023 27.4287 42.8193 27.2188 43.0918 26.8838C43.5264 26.3477 43.6426 25.4141 43.4092 24.3232ZM38.4434 10.7451C38.793 10.7451 38.9346 10.6191 39.0107 10.5234C39.2314 10.249 39.29 9.68164 39.1582 9.07812C38.8633 7.72363 38.543 7.29492 38.4248 7.17676C38.3057 7.2959 37.9834 7.72656 37.6895 9.0918C37.5625 9.68066 37.624 10.2373 37.8447 10.5117C37.9268 10.6113 38.0762 10.7451 38.4434 10.7451ZM32.6943 10.7451C33.0439 10.7451 33.1855 10.6191 33.2617 10.5234C33.4824 10.249 33.541 9.68164 33.4092 9.07812C33.1143 7.72363 32.7939 7.29492 32.6758 7.17676C32.5566 7.2959 32.2344 7.72656 31.9404 9.0918C31.8135 9.68066 31.875 10.2373 32.0957 10.5117C32.1768 10.6113 32.3271 10.7451 32.6943 10.7451ZM29.0098 11.917V27.5488H38.4668C37.6318 26.4434 37.7969 24.9082 37.9736 24.0791C38.0322 23.8047 38.0957 23.542 38.165 23.291H37.5889C36.8955 23.291 36.3311 22.7266 36.3311 22.0332V20.3936C36.3311 19.7002 36.8955 19.1357 37.5889 19.1357H39.2285C39.7031 19.1357 40.1162 19.3994 40.3301 19.7881C40.626 19.6318 40.9385 19.5508 41.2646 19.5508C41.5518 19.5508 41.8291 19.6143 42.0928 19.7363V12.0586C42.0928 11.9814 42.0273 11.916 41.9502 11.916H29.0098V11.917ZM15.0918 27.5479H16.7021V25.7627C16.0645 25.6855 15.5254 25.4736 15.0918 25.1289V27.5479ZM27.8379 6.29394H17.874V7.93359H27.8369V6.29394H27.8379ZM17.874 9.10547V10.7451H27.8369V9.10547H17.874ZM27.8379 27.5479V20.3496H20.4775C20.5029 20.4688 20.5273 20.5898 20.5508 20.7139C20.626 21.1123 20.6973 21.6494 20.6895 22.2266C20.7588 22.2148 20.8291 22.208 20.9014 22.208H24.8115C25.5322 22.208 26.1182 22.7939 26.1182 23.5146V27.5479H27.8379ZM24.9453 23.5146C24.9453 23.4414 24.8838 23.3799 24.8105 23.3799H20.9004C20.8271 23.3799 20.7656 23.4414 20.7656 23.5146V27.5479H24.9443V23.5146H24.9453ZM17.874 11.917V13.5566H27.8369V11.917H17.874ZM17.874 14.7275V15.8047C18.1748 15.9102 18.4609 16.0996 18.7285 16.3672H27.8369V14.7275H17.874ZM19.5479 17.5391C19.7861 18.0039 19.999 18.5527 20.1836 19.1787H27.8369V17.5391H19.5479ZM19.5947 25.0381C19.1426 25.4365 18.5664 25.6797 17.874 25.7627V27.5479H19.5947V25.0381ZM16.918 28.7197C17.2197 32.917 20.7275 36.2393 25 36.2393C29.2725 36.2393 32.7813 32.916 33.082 28.7197H16.918ZM17.874 4.17383V5.12305H27.8369V4.17383C27.8369 3.71289 27.4619 3.33887 27.002 3.33887H18.709C18.249 3.33789 17.874 3.71289 17.874 4.17383ZM15.1846 20.9316C14.9326 22.2617 15.0791 23.373 15.585 23.9814C15.8496 24.2998 16.2188 24.4971 16.7021 24.5791V22.2861C16.7021 21.9629 16.9648 21.7002 17.2881 21.7002C17.6113 21.7002 17.874 21.9629 17.874 22.2861V24.5791C18.3594 24.4961 18.7295 24.2988 18.9951 23.9795C19.5029 23.3701 19.6494 22.2588 19.3984 20.9326C18.8711 18.1455 17.9365 16.876 17.291 16.876C16.6465 16.876 15.7119 18.1445 15.1846 20.9316ZM6.47266 27.5479H8.18164V25.3975C8.18164 24.2861 9.08594 23.3818 10.1973 23.3818C11.3086 23.3818 12.2129 24.2861 12.2129 25.3975V27.5479H13.9219V22.7051C13.8828 22.2979 13.8906 21.8984 13.9219 21.5361V9.9541C13.9219 9.44922 13.5107 9.03809 13.0059 9.03809H7.3877C6.88281 9.03809 6.47168 9.44922 6.47168 9.9541V27.5479H6.47266ZM11.04 25.3975C11.04 24.9326 10.6611 24.5537 10.1963 24.5537C9.73145 24.5537 9.35254 24.9326 9.35254 25.3975V27.5479H11.0391V25.3975H11.04ZM43.5273 28.7197H41.2842C41.2832 28.7197 41.2822 28.7197 41.2812 28.7197C41.2676 28.7197 41.2529 28.7197 41.2393 28.7197C41.2383 28.7197 41.2373 28.7197 41.2363 28.7197H34.2568C33.9531 33.5635 29.917 37.4111 24.998 37.4111C20.0791 37.4111 16.043 33.5635 15.7393 28.7197H6.47266V30.3311C6.47266 30.7275 6.7959 31.0508 7.19238 31.0508H10.3623C11.1943 31.0508 11.9004 31.5615 12.1592 32.3525C12.3691 32.9932 12.6318 33.624 12.9375 34.2285C13.3135 34.9717 13.1768 35.832 12.5879 36.4209L10.3457 38.6631C10.21 38.7988 10.1357 38.9795 10.1357 39.1719C10.1357 39.3643 10.21 39.5459 10.3457 39.6807L13.4531 42.7881C13.5889 42.9238 13.7695 42.998 13.9619 42.998C14.1543 42.998 14.3359 42.9238 14.4707 42.7881L16.7129 40.5459C17.3018 39.957 18.1621 39.8193 18.9053 40.1963C19.5088 40.502 20.1406 40.7637 20.7812 40.9746C21.5713 41.2344 22.082 41.9395 22.082 42.7715V45.9414C22.082 46.3379 22.4053 46.6611 22.8018 46.6611H27.1963C27.5938 46.6611 27.916 46.3379 27.916 45.9414V42.7715C27.916 41.9395 28.4268 41.2344 29.2178 40.9746C29.8584 40.7637 30.4902 40.502 31.0938 40.1963C31.8369 39.8203 32.6973 39.957 33.2861 40.5459L35.5283 42.7881C35.6641 42.9238 35.8447 42.998 36.0371 42.998C36.2305 42.998 36.4111 42.9238 36.5459 42.7881L39.6533 39.6807C39.7891 39.5449 39.8633 39.3643 39.8633 39.1719C39.8633 38.9785 39.7891 38.7979 39.6533 38.6631L37.4111 36.4209C36.8223 35.832 36.6846 34.9717 37.0615 34.2285C37.3672 33.625 37.6289 32.9932 37.8398 32.3525C38.0996 31.5625 38.8047 31.0508 39.6367 31.0508H42.8066C43.2041 31.0508 43.5264 30.7275 43.5264 30.3311V28.7197H43.5273Z" fill="#0C0E11"/>
</svg>
