<svg width="50" height="50" viewBox="0 0 50 50" fill="none" xmlns="http://www.w3.org/2000/svg">
<path d="M48.0603 30.1905L48.0493 30.1726C47.5491 29.411 46.7854 28.8606 45.9047 28.627C45.0239 28.3933 44.0879 28.4927 43.2759 28.9062L38.2696 31.4671C37.6704 30.625 36.7883 30.0263 35.7843 29.7805C34.7803 29.5347 33.7215 29.658 32.8009 30.128L26.497 33.3593C26.1679 33.5283 25.8028 33.6154 25.4328 33.6131C25.0629 33.6108 24.6989 33.5192 24.372 33.346L20.0751 31.0648C18.449 30.1967 16.6141 29.7962 14.7742 29.9076C12.9342 30.019 11.1611 30.6381 9.65167 31.696L9.16573 29.382C9.14457 29.2812 9.10372 29.1857 9.04552 29.1008C8.98733 29.0159 8.91293 28.9434 8.82662 28.8874C8.7403 28.8313 8.64376 28.7929 8.54255 28.7742C8.44133 28.7556 8.33743 28.7572 8.23682 28.7788L2.17901 30.0859C1.97733 30.1294 1.80105 30.2509 1.68864 30.4239C1.57623 30.5969 1.53682 30.8073 1.57901 31.0093L5.10635 47.8163C5.14232 47.9925 5.23797 48.1509 5.37717 48.2648C5.51637 48.3787 5.69058 48.441 5.87042 48.4413C5.92554 48.4411 5.98051 48.4353 6.03448 48.4241L12.0954 47.1195C12.2974 47.0761 12.474 46.9546 12.5866 46.7814C12.6992 46.6082 12.7386 46.3974 12.6962 46.1952L12.3837 44.6905L14.4548 44.2452C15.0582 44.1166 15.6792 44.0928 16.2907 44.1749L26.0321 45.2429C28.0545 45.5108 30.105 45.0295 31.797 43.8898L47.4009 33.421C47.9111 33.0755 48.2659 32.544 48.3891 31.9402C48.5123 31.3364 48.3943 30.7084 48.0603 30.1905ZM6.47432 46.7273L3.26729 31.4499L7.79854 30.4734L11.0079 45.7515L6.47432 46.7273ZM46.5314 32.1257L30.9282 42.5945C29.5441 43.5219 27.8685 43.9109 26.2173 43.6882L16.4767 42.6202C15.6928 42.5153 14.8966 42.547 14.1235 42.714L12.0595 43.1577L10.0001 33.3593L10.5337 32.9874C11.808 32.0912 13.3059 31.566 14.8609 31.4702C16.4159 31.3745 17.9669 31.712 19.3415 32.4452L23.6384 34.7265C24.1873 35.0185 24.7988 35.1733 25.4206 35.1775C26.0423 35.1817 26.6559 35.0353 27.2087 34.7507L33.5157 31.5155C34.146 31.1934 34.8759 31.1255 35.5548 31.3258C36.2336 31.5262 36.8097 31.9794 37.1642 32.5921C37.2686 32.7714 37.2982 32.9847 37.2464 33.1857C37.1947 33.3866 37.0657 33.5591 36.8876 33.6655L28.1954 38.8218C26.6755 39.7292 24.8643 40.016 23.1384 39.6226L15.2978 37.7476L14.9345 39.2679L22.7829 41.1429C24.9014 41.6282 27.1254 41.2782 28.9923 40.1655L37.6853 35.0093C38.0411 34.7955 38.3338 34.491 38.5334 34.127C38.733 33.7629 38.8323 33.3524 38.8212 32.9374L43.9845 30.2952C44.4521 30.0578 44.9906 30.0005 45.4977 30.1344C46.0048 30.2682 46.4449 30.5838 46.7345 31.021L46.7431 31.0351C46.8555 31.209 46.8963 31.4197 46.8568 31.623C46.8173 31.8263 46.7007 32.0065 46.5314 32.1257Z" fill="#0C0E11"/>
<path d="M6.61906 32.3291L5.08984 32.6499L5.41033 34.1776L6.93954 33.8568L6.61906 32.3291Z" fill="#0C0E11"/>
<path d="M16.4062 21.875C16.199 21.875 16.0003 21.9573 15.8538 22.1038C15.7073 22.2503 15.625 22.449 15.625 22.6562V27.3438C15.625 27.551 15.7073 27.7497 15.8538 27.8962C16.0003 28.0427 16.199 28.125 16.4062 28.125H19.5312C19.7385 28.125 19.9372 28.0427 20.0837 27.8962C20.2302 27.7497 20.3125 27.551 20.3125 27.3438V22.6562C20.3125 22.449 20.2302 22.2503 20.0837 22.1038C19.9372 21.9573 19.7385 21.875 19.5312 21.875H16.4062ZM18.75 26.5625H17.1875V23.4375H18.75V26.5625Z" fill="#0C0E11"/>
<path d="M23.4375 16.4062C23.2303 16.4062 23.0316 16.4886 22.8851 16.6351C22.7386 16.7816 22.6562 16.9803 22.6562 17.1875V27.3438C22.6562 27.551 22.7386 27.7497 22.8851 27.8962C23.0316 28.0427 23.2303 28.125 23.4375 28.125H26.5625C26.7697 28.125 26.9684 28.0427 27.1149 27.8962C27.2614 27.7497 27.3438 27.551 27.3438 27.3438V17.1875C27.3438 16.9803 27.2614 16.7816 27.1149 16.6351C26.9684 16.4886 26.7697 16.4062 26.5625 16.4062H23.4375ZM25.7812 26.5625H24.2188V17.9688H25.7812V26.5625Z" fill="#0C0E11"/>
<path d="M30.4688 18.75C30.2615 18.75 30.0628 18.8323 29.9163 18.9788C29.7698 19.1253 29.6875 19.324 29.6875 19.5312V27.3438C29.6875 27.551 29.7698 27.7497 29.9163 27.8962C30.0628 28.0427 30.2615 28.125 30.4688 28.125H33.5938C33.801 28.125 33.9997 28.0427 34.1462 27.8962C34.2927 27.7497 34.375 27.551 34.375 27.3438V19.5312C34.375 19.324 34.2927 19.1253 34.1462 18.9788C33.9997 18.8323 33.801 18.75 33.5938 18.75H30.4688ZM32.8125 26.5625H31.25V20.3125H32.8125V26.5625Z" fill="#0C0E11"/>
<path d="M37.5 14.8438C37.2928 14.8438 37.0941 14.9261 36.9476 15.0726C36.8011 15.2191 36.7188 15.4178 36.7188 15.625V27.3438C36.7188 27.551 36.8011 27.7497 36.9476 27.8962C37.0941 28.0427 37.2928 28.125 37.5 28.125H40.625C40.8322 28.125 41.0309 28.0427 41.1774 27.8962C41.3239 27.7497 41.4062 27.551 41.4062 27.3438V15.625C41.4062 15.4178 41.3239 15.2191 41.1774 15.0726C41.0309 14.9261 40.8322 14.8438 40.625 14.8438H37.5ZM39.8438 26.5625H38.2812V16.4062H39.8438V26.5625Z" fill="#0C0E11"/>
<path d="M16.4078 9.69844L21.3242 14.6148C21.4707 14.7613 21.6694 14.8436 21.8766 14.8436C22.0837 14.8436 22.2824 14.7613 22.4289 14.6148L31.2516 5.79219L37.7305 12.2711C37.877 12.4176 38.0757 12.4998 38.2828 12.4998C38.49 12.4998 38.6887 12.4176 38.8352 12.2711L46.8766 4.22969V6.25H48.4391V2.34375C48.4391 2.13655 48.3568 1.93784 48.2102 1.79132C48.0637 1.64481 47.865 1.5625 47.6578 1.5625H43.7516V3.125H45.7719L38.2828 10.6141L31.8039 4.13516C31.6574 3.9887 31.4587 3.90642 31.2516 3.90642C31.0444 3.90642 30.8457 3.9887 30.6992 4.13516L21.8766 12.9578L16.9602 8.04141C16.8137 7.89495 16.615 7.81267 16.4078 7.81267C16.2007 7.81267 16.002 7.89495 15.8555 8.04141L4.91797 18.9789L6.02266 20.0836L16.4078 9.69844Z" fill="#0C0E11"/>
</svg>
