<svg width="50" height="50" viewBox="0 0 50 50" fill="none" xmlns="http://www.w3.org/2000/svg">
<path d="M3.14335 29.8367L2.60938 31.3052L4.0778 31.8391L4.61177 30.3707L3.14335 29.8367Z" fill="#0C0E11"/>
<path d="M47.7344 31.7031L44.7969 23.625L48.7031 22.2031L48.1719 20.7344L44.5312 22.0625V5.46875C44.5312 4.43275 44.1197 3.43918 43.3871 2.70661C42.6546 1.97405 41.661 1.5625 40.625 1.5625H9.375C8.339 1.5625 7.34543 1.97405 6.61286 2.70661C5.8803 3.43918 5.46875 4.43275 5.46875 5.46875V23.2031L3.34375 22.4297L1.82812 21.875L1.29688 23.3438L2.07813 23.625L0.828125 27.0625L2.29688 27.5938L3.54688 24.1641L7.95313 25.7656L5.01562 33.8438L3.25 33.2031L1.82812 32.6797L1.29688 34.1484L5.46875 35.6719V44.5312C5.46875 45.5673 5.8803 46.5608 6.61286 47.2934C7.34543 48.026 8.339 48.4375 9.375 48.4375H40.625C41.661 48.4375 42.6546 48.026 43.3871 47.2934C44.1197 46.5608 44.5312 45.5673 44.5312 44.5312V34.5312L47.5391 33.4375C47.5411 33.4375 47.5431 33.4367 47.5446 33.4352C47.5461 33.4337 47.5469 33.4318 47.5469 33.4297L48.7031 33.0078L48.1719 31.5469L47.7344 31.7031ZM40.625 3.125C41.246 3.12685 41.8411 3.37438 42.2802 3.81352C42.7194 4.25265 42.9669 4.84772 42.9688 5.46875V22.6328L41.4062 23.2031V10.1562C41.408 9.96221 41.3353 9.77489 41.2031 9.63281L35.3516 3.125H40.625ZM34.375 4.38281L38.8672 9.375H35.1562C34.949 9.375 34.7503 9.29269 34.6038 9.14618C34.4573 8.99966 34.375 8.80095 34.375 8.59375V4.38281ZM7.05469 23.7734L7.03125 23.7656V5.46875C7.0331 4.84772 7.28063 4.25265 7.71977 3.81352C8.1589 3.37438 8.75397 3.12685 9.375 3.125H32.8125V8.59375C32.8144 9.21478 33.0619 9.80985 33.501 10.249C33.9402 10.6881 34.5352 10.9356 35.1562 10.9375H39.8438V23.7656L36.9219 24.8359L27.1797 23.1172C26.877 23.0637 26.5668 23.0704 26.2667 23.1368C25.9666 23.2033 25.6825 23.3282 25.4308 23.5046C25.179 23.6809 24.9644 23.9051 24.7994 24.1644C24.6343 24.4236 24.522 24.7129 24.4688 25.0156C24.4148 25.3188 24.421 25.6297 24.4872 25.9304C24.5534 26.2312 24.6783 26.5159 24.8546 26.7684C25.0309 27.0209 25.2552 27.2362 25.5147 27.4019C25.7743 27.5677 26.064 27.6806 26.3672 27.7344L26.5781 27.7656L23.4375 28.9062L20.3047 27.7656L20.5078 27.7344C20.811 27.681 21.1007 27.5685 21.3603 27.4032C21.62 27.2379 21.8446 27.023 22.0212 26.7709C22.1979 26.5188 22.3232 26.2344 22.3899 25.9339C22.4566 25.6334 22.4635 25.3227 22.4102 25.0195C22.3568 24.7164 22.2443 24.4267 22.079 24.167C21.9137 23.9073 21.6988 23.6827 21.4467 23.5061C21.1946 23.3294 20.9102 23.2042 20.6097 23.1375C20.3092 23.0707 19.9985 23.0638 19.6953 23.1172L9.95312 24.8359L7.05469 23.7734ZM6.47656 34.375L9.42188 26.2969L9.61719 26.375C9.7449 26.4205 9.88239 26.4313 10.0156 26.4062L19.9688 24.6562C20.0694 24.6381 20.1726 24.6401 20.2724 24.6622C20.3722 24.6843 20.4667 24.7259 20.5503 24.7848C20.6339 24.8437 20.7049 24.9186 20.7593 25.0051C20.8137 25.0917 20.8504 25.1882 20.8672 25.2891C20.8859 25.3901 20.8845 25.4939 20.8631 25.5945C20.8416 25.695 20.8006 25.7904 20.7422 25.875C20.6209 26.0436 20.4388 26.1584 20.2344 26.1953L17.1562 26.7344C16.9875 26.7658 16.8336 26.8515 16.7179 26.9784C16.6023 27.1053 16.5313 27.2665 16.5156 27.4375C16.5004 27.6088 16.5429 27.7803 16.6363 27.9247C16.7297 28.0691 16.8687 28.1781 17.0312 28.2344L25.8359 31.4453C25.9328 31.4796 26.0219 31.5328 26.098 31.6018C26.1741 31.6708 26.2358 31.7543 26.2794 31.8473C26.323 31.9403 26.3477 32.0411 26.352 32.1438C26.3564 32.2464 26.3403 32.3489 26.3047 32.4453C26.2316 32.6405 26.0861 32.8 25.8984 32.8906C25.7113 32.9763 25.498 32.9848 25.3047 32.9141L18.6953 30.5078C18.5022 30.4441 18.2918 30.4582 18.1089 30.5471C17.926 30.636 17.785 30.7927 17.7158 30.984C17.6466 31.1752 17.6548 31.3859 17.7385 31.5713C17.8222 31.7566 17.9748 31.902 18.1641 31.9766L27.7031 35.4531C27.8006 35.4865 27.8904 35.5392 27.9671 35.608C28.0438 35.6768 28.1059 35.7604 28.1496 35.8537C28.1934 35.947 28.2179 36.0482 28.2217 36.1511C28.2255 36.2541 28.2086 36.3568 28.1719 36.4531C28.0987 36.6458 27.9534 36.8024 27.7668 36.8899C27.5801 36.9774 27.3668 36.9889 27.1719 36.9219L17.625 33.4453C17.5278 33.407 17.4239 33.3886 17.3195 33.3912C17.2151 33.3937 17.1122 33.4172 17.017 33.4602C16.9218 33.5032 16.8362 33.5648 16.7653 33.6415C16.6943 33.7181 16.6395 33.8082 16.6039 33.9064C16.5684 34.0047 16.5529 34.109 16.5584 34.2133C16.5639 34.3176 16.5903 34.4198 16.636 34.5137C16.6816 34.6077 16.7457 34.6915 16.8243 34.7603C16.9029 34.829 16.9946 34.8813 17.0938 34.9141L23.7031 37.3203C23.799 37.354 23.8872 37.4067 23.9623 37.4751C24.0375 37.5436 24.0981 37.6264 24.1406 37.7188C24.2261 37.9086 24.2345 38.1243 24.1641 38.3203C24.1304 38.4162 24.0777 38.5044 24.0093 38.5795C23.9408 38.6547 23.858 38.7153 23.7656 38.7578C23.6726 38.8033 23.5714 38.8294 23.468 38.8348C23.3647 38.8402 23.2613 38.8246 23.1641 38.7891L16.5547 36.3828C16.3616 36.3191 16.1512 36.3332 15.9683 36.4221C15.7854 36.511 15.6443 36.6677 15.5752 36.859C15.506 37.0502 15.5141 37.2609 15.5978 37.4463C15.6815 37.6316 15.8342 37.777 16.0234 37.8516L19.7031 39.1875C19.8953 39.2611 20.051 39.4068 20.1371 39.5937C20.2233 39.7805 20.2329 39.9936 20.1641 40.1875C20.0904 40.3804 19.9448 40.5373 19.7578 40.625C19.6649 40.6706 19.5636 40.6969 19.4602 40.7023C19.3568 40.7076 19.2534 40.692 19.1562 40.6562L9.05469 36.9766L6.78125 34.5703C6.69626 34.4824 6.59194 34.4155 6.47656 34.375ZM39.8438 44.5312C39.8419 45.1523 39.5944 45.7473 39.1552 46.1865C38.7161 46.6256 38.121 46.8731 37.5 46.875H9.375C8.75397 46.8731 8.1589 46.6256 7.71977 46.1865C7.28063 45.7473 7.0331 45.1523 7.03125 44.5312V37.1094L8.04688 38.1875C8.13186 38.2754 8.23619 38.3423 8.35156 38.3828L18.625 42.125C19.2082 42.3368 19.8516 42.3087 20.4141 42.0469C20.6948 41.9169 20.947 41.7326 21.1562 41.5047C21.3654 41.2767 21.5274 41.0096 21.6328 40.7188C21.7179 40.4694 21.7653 40.2087 21.7734 39.9453L22.6328 40.2578C23.152 40.4403 23.7188 40.4348 24.2344 40.2422L25.1094 39.9453C25.1071 40.209 25.1521 40.4709 25.2422 40.7188C25.4077 41.1722 25.7085 41.5637 26.104 41.8404C26.4995 42.1171 26.9705 42.2656 27.4531 42.2656C27.7249 42.2659 27.9947 42.2183 28.25 42.125L38.5234 38.3828C38.6388 38.3423 38.7431 38.2754 38.8281 38.1875L39.8438 37.1094V44.5312ZM40.0938 34.5703L37.8203 36.9766L27.7187 40.6562C27.5238 40.7252 27.3097 40.7157 27.1216 40.6297C26.9335 40.5436 26.7863 40.3879 26.7109 40.1953C26.6402 40.0015 26.6489 39.7876 26.7353 39.6003C26.8216 39.413 26.9786 39.2674 27.1719 39.1953L30.8516 37.8516C31.0026 37.797 31.1331 37.6972 31.2253 37.5658C31.3176 37.4344 31.3671 37.2777 31.3672 37.1172C31.3668 37.0266 31.351 36.9368 31.3203 36.8516C31.2498 36.6568 31.1049 36.4981 30.9173 36.4102C30.7298 36.3223 30.5151 36.3125 30.3203 36.3828L29.7422 36.5938C29.8272 36.1202 29.7645 35.632 29.5625 35.1953C29.5359 35.1381 29.5046 35.0832 29.4688 35.0312L29.7812 34.9141C29.8804 34.8813 29.9721 34.829 30.0507 34.7603C30.1293 34.6915 30.1934 34.6077 30.239 34.5137C30.2847 34.4198 30.3111 34.3176 30.3166 34.2133C30.3221 34.109 30.3066 34.0047 30.2711 33.9064C30.2355 33.8082 30.1807 33.7181 30.1097 33.6415C30.0388 33.5648 29.9531 33.5032 29.858 33.4602C29.7628 33.4172 29.6599 33.3937 29.5555 33.3912C29.4511 33.3886 29.3472 33.407 29.25 33.4453L28.0078 33.8984L27.3828 33.6719C27.5505 33.4633 27.6825 33.2283 27.7734 32.9766C27.8533 32.7506 27.8956 32.5131 27.8984 32.2734L28.7109 31.9766C28.8101 31.9438 28.9017 31.8915 28.9804 31.8228C29.059 31.754 29.1231 31.6702 29.1687 31.5762C29.2144 31.4823 29.2408 31.3801 29.2463 31.2758C29.2518 31.1715 29.2363 31.0672 29.2008 30.9689C29.1652 30.8707 29.1104 30.7806 29.0394 30.704C28.9684 30.6273 28.8828 30.5657 28.7876 30.5227C28.6924 30.4797 28.5896 30.4562 28.4852 30.4537C28.3807 30.4511 28.2769 30.4695 28.1797 30.5078L27.4453 30.7734C27.1713 30.4117 26.8001 30.1353 26.375 29.9766L25.7266 29.7422L29.2031 28.4766C29.5958 29.1313 30.1753 29.6537 30.8672 29.9766C31.3835 30.217 31.946 30.3423 32.5156 30.3438C32.9711 30.3427 33.4229 30.2634 33.8516 30.1094L34.5859 29.8359L34.0547 28.3672L33.3203 28.6406C33.0305 28.7463 32.7227 28.7938 32.4145 28.7803C32.1064 28.7668 31.8039 28.6926 31.5244 28.562C31.245 28.4313 30.9941 28.2468 30.7861 28.019C30.5782 27.7912 30.4172 27.5245 30.3125 27.2344C30.2661 27.1063 30.1868 26.9926 30.0826 26.9049C29.9784 26.8171 29.8529 26.7583 29.7188 26.7344L26.6406 26.1953C26.4362 26.1584 26.2541 26.0436 26.1328 25.875C26.044 25.7486 25.9947 25.5987 25.991 25.4442C25.9874 25.2898 26.0297 25.1377 26.1124 25.0073C26.1952 24.8768 26.3148 24.7739 26.4561 24.7114C26.5974 24.6489 26.7541 24.6297 26.9062 24.6562L36.8594 26.4062C36.9926 26.4313 37.1301 26.4205 37.2578 26.375L37.4531 26.2969L40.3984 34.375C40.2845 34.4185 40.1808 34.485 40.0938 34.5703ZM42.9688 44.5312C42.9669 45.1523 42.7194 45.7473 42.2802 46.1865C41.8411 46.6256 41.246 46.8731 40.625 46.875H40.6016C41.121 46.2039 41.4039 45.3799 41.4062 44.5312V35.6719L42.9688 35.1016V44.5312ZM41.8594 33.8438L38.9219 25.7656L43.3281 24.1641L46.2656 32.2344L41.8594 33.8438Z" fill="#0C0E11"/>
<path d="M43.7301 29.8366L42.2617 30.3706L42.7957 31.839L44.2641 31.3051L43.7301 29.8366Z" fill="#0C0E11"/>
<path d="M24.2188 15.625H22.6562C22.449 15.625 22.2503 15.5427 22.1038 15.3962C21.9573 15.2497 21.875 15.051 21.875 14.8438H20.3125C20.3125 15.4654 20.5594 16.0615 20.999 16.501C21.4385 16.9406 22.0346 17.1875 22.6562 17.1875V17.9688H24.2188V17.1875C24.8404 17.1875 25.4365 16.9406 25.876 16.501C26.3156 16.0615 26.5625 15.4654 26.5625 14.8438C26.5625 14.2221 26.3156 13.626 25.876 13.1865C25.4365 12.7469 24.8404 12.5 24.2188 12.5H22.6562C22.449 12.5 22.2503 12.4177 22.1038 12.2712C21.9573 12.1247 21.875 11.926 21.875 11.7188C21.875 11.5115 21.9573 11.3128 22.1038 11.1663C22.2503 11.0198 22.449 10.9375 22.6562 10.9375H24.2188C24.426 10.9375 24.6247 11.0198 24.7712 11.1663C24.9177 11.3128 25 11.5115 25 11.7188H26.5625C26.5625 11.0971 26.3156 10.501 25.876 10.0615C25.4365 9.62193 24.8404 9.375 24.2188 9.375V8.59375H22.6562V9.375C22.0346 9.375 21.4385 9.62193 20.999 10.0615C20.5594 10.501 20.3125 11.0971 20.3125 11.7188C20.3125 12.3404 20.5594 12.9365 20.999 13.376C21.4385 13.8156 22.0346 14.0625 22.6562 14.0625H24.2188C24.426 14.0625 24.6247 14.1448 24.7712 14.2913C24.9177 14.4378 25 14.6365 25 14.8438C25 15.051 24.9177 15.2497 24.7712 15.3962C24.6247 15.5427 24.426 15.625 24.2188 15.625Z" fill="#0C0E11"/>
<path d="M23.4375 21.0938C24.9827 21.0938 26.4931 20.6356 27.7779 19.7771C29.0627 18.9187 30.064 17.6985 30.6553 16.271C31.2466 14.8434 31.4013 13.2726 31.0999 11.7571C30.7984 10.2416 30.0544 8.84958 28.9618 7.75698C27.8692 6.66438 26.4771 5.92032 24.9616 5.61887C23.4462 5.31742 21.8753 5.47214 20.4478 6.06344C19.0202 6.65475 17.8001 7.6561 16.9416 8.94086C16.0832 10.2256 15.625 11.7361 15.625 13.2813C15.6273 15.3526 16.4511 17.3384 17.9157 18.803C19.3804 20.2676 21.3662 21.0915 23.4375 21.0938ZM23.4375 7.03125C24.6736 7.03125 25.882 7.39781 26.9098 8.08457C27.9376 8.77133 28.7387 9.74744 29.2117 10.8895C29.6848 12.0315 29.8086 13.2882 29.5674 14.5006C29.3263 15.7129 28.731 16.8266 27.8569 17.7007C26.9828 18.5747 25.8692 19.17 24.6568 19.4112C23.4444 19.6523 22.1878 19.5285 21.0457 19.0555C19.9037 18.5825 18.9276 17.7814 18.2408 16.7536C17.5541 15.7258 17.1875 14.5174 17.1875 13.2813C17.1894 11.6242 17.8484 10.0356 19.0201 8.86389C20.1918 7.69219 21.7805 7.03311 23.4375 7.03125Z" fill="#0C0E11"/>
</svg>
