<svg width="52" height="58" viewBox="0 0 52 58" fill="none" xmlns="http://www.w3.org/2000/svg">
<path d="M48.1825 13.2385H48.1526V12.4411C48.1526 12.2252 48.0669 12.018 47.9141 11.8653C47.7614 11.7126 47.5543 11.6268 47.3383 11.6268H42.6144V8.5392H43.525C43.859 9.45488 44.736 10.1117 45.7658 10.1117C47.0819 10.1117 48.1526 9.04096 48.1526 7.72484C48.1526 6.40873 47.0819 5.33786 45.7658 5.33786C44.736 5.33786 43.8589 5.99469 43.525 6.91049H41.8001C41.3503 6.91049 40.9857 7.27509 40.9857 7.72484V11.627H37.8262C37.3764 11.627 37.0118 11.9916 37.0118 12.4413C37.0118 17.0051 33.2988 20.7182 28.7349 20.7182C24.1711 20.7182 20.4581 17.0052 20.4581 12.4413C20.4581 11.9916 20.0935 11.627 19.6437 11.627H16.484V7.72484C16.484 7.27509 16.1194 6.91049 15.6697 6.91049H13.9448C13.6108 5.99469 12.7338 5.33786 11.704 5.33786C10.3879 5.33786 9.31714 6.40862 9.31714 7.72484C9.31714 9.04084 10.3879 10.1117 11.704 10.1117C12.7338 10.1117 13.6108 9.45488 13.9448 8.5392H14.8553V11.6269H10.1315C9.68174 11.6269 9.31714 11.9915 9.31714 12.4412V13.3202C7.52847 13.6903 6.1799 15.2777 6.1799 17.1745V29.7867C6.12929 29.7474 6.08008 29.705 6.0332 29.6581C5.45512 29.08 4.51466 29.0803 3.9367 29.6581L2.49832 31.0965C2.2183 31.3765 2.06415 31.7487 2.06415 32.1448C2.06415 32.5408 2.21842 32.913 2.49832 33.1929C2.92248 33.6171 3.03835 34.2023 2.80813 34.758C2.5779 35.3138 2.0823 35.6455 1.48247 35.6455C0.665095 35.6455 0 36.3106 0 37.128V39.1622C0 39.9795 0.664978 40.6445 1.48247 40.6445C2.08242 40.6445 2.57801 40.9764 2.80813 41.5322C3.03835 42.0878 2.92248 42.673 2.49844 43.097C2.21842 43.3769 2.06415 43.7492 2.06415 44.1453C2.06415 44.5414 2.21842 44.9137 2.49832 45.1936L3.93647 46.632C4.51443 47.2098 5.45489 47.2098 6.03297 46.632C6.45794 46.207 7.04311 46.0905 7.59862 46.3206C8.15389 46.5506 8.48545 47.0467 8.48545 47.6477C8.48545 48.4651 9.15055 49.1302 9.96793 49.1302H12.0019C12.8193 49.1302 13.4844 48.4651 13.4844 47.6477C13.4844 47.0479 13.8162 46.5523 14.3718 46.3221C14.9277 46.0919 15.5127 46.2077 15.937 46.6319C16.5151 47.2097 17.4556 47.2098 18.0335 46.6318L18.5954 46.0699H22.2843C22.2347 48.3542 21.6921 50.6385 21.0786 52.0411H18.5716C17.0748 52.0411 15.8571 53.2587 15.8571 54.7554C15.8571 56.2522 17.0748 57.47 18.5716 57.47H38.8983C40.3951 57.47 41.6128 56.2522 41.6128 54.7554C41.6128 53.2587 40.3951 52.0411 38.8983 52.0411H36.3832C35.7403 50.6154 35.1622 48.3235 35.0909 46.0699H47.354C49.5242 46.0699 51.2899 44.3042 51.2899 42.134V16.3463C51.2899 14.6327 49.8959 13.2385 48.1825 13.2385ZM45.7656 6.96657C46.1838 6.96657 46.5238 7.30673 46.5238 7.72484C46.5238 8.14296 46.1838 8.48301 45.7656 8.48301C45.3475 8.48301 45.0075 8.14296 45.0075 7.72484C45.0075 7.30673 45.3477 6.96657 45.7656 6.96657ZM11.7038 8.48289C11.2857 8.48289 10.9456 8.14284 10.9456 7.72473C10.9456 7.30662 11.2857 6.96645 11.7038 6.96645C12.1219 6.96645 12.4619 7.30662 12.4619 7.72473C12.4619 8.14284 12.1219 8.48289 11.7038 8.48289ZM10.9456 13.2556H18.8624C19.2777 18.3382 23.5469 22.3468 28.7348 22.3468C33.9227 22.3468 38.1919 18.3383 38.6072 13.2556L46.5239 13.2555V14.3015C46.5239 14.5262 46.341 14.7091 46.1163 14.7091C44.0859 14.7091 42.3412 15.8761 41.5631 17.7547C40.7849 19.6333 41.1934 21.6923 42.6291 23.1279C42.7881 23.2869 42.7881 23.5456 42.6291 23.7047L39.9983 26.3355C39.8391 26.4945 39.5804 26.4944 39.4215 26.3356C37.9858 24.8998 35.9271 24.4913 34.0483 25.2695C32.1697 26.0476 31.0026 27.7923 31.0026 29.8227C31.0026 30.0474 30.8197 30.2303 30.5949 30.2303H26.8745C26.6497 30.2303 26.4669 30.0474 26.4669 29.8227C26.4669 27.7902 25.3003 26.0443 23.4224 25.2666C22.7932 25.006 22.1436 24.8786 21.5038 24.8786C20.2344 24.8786 19.0036 25.38 18.0481 26.3355C17.889 26.4944 17.6304 26.4945 17.4714 26.3356L14.8404 23.7046C14.6815 23.5456 14.6815 23.2869 14.8404 23.128C16.2761 21.6923 16.6846 19.6334 15.9065 17.7548C15.1285 15.8762 13.3837 14.7091 11.3533 14.7091C11.1285 14.7091 10.9456 14.5262 10.9456 14.3015V13.2556ZM9.4322 14.9706C9.70989 15.7653 10.4651 16.3379 11.3534 16.3379C12.978 16.3379 13.9934 17.3918 14.402 18.3781C14.8104 19.3644 14.8378 20.8276 13.6889 21.9764C12.8951 22.7705 12.8951 24.0624 13.6889 24.8563L16.3199 27.4874C17.114 28.2813 18.4058 28.2811 19.1997 27.4872C20.3502 26.3366 21.8134 26.3631 22.7992 26.7714C23.785 27.1796 24.8381 28.1956 24.8381 29.8228C24.8381 30.9456 25.7517 31.8592 26.8745 31.8592H30.5949C31.7178 31.8592 32.6313 30.9456 32.6313 29.8228C32.6313 28.1983 33.6852 27.1829 34.6715 26.7743C35.6578 26.3658 37.1209 26.3386 38.2698 27.4875C39.0639 28.2815 40.3558 28.2812 41.1497 27.4874L43.7806 24.8565C44.5746 24.0625 44.5746 22.7706 43.7806 21.9764C42.6318 20.8277 42.659 19.3645 43.0676 18.3781C43.4761 17.3918 44.4914 16.338 46.1161 16.338C47.0424 16.338 47.8249 15.7155 48.0707 14.8673H48.1823C48.9977 14.8673 49.6609 15.5308 49.6609 16.3464V38.2322H21.9703V37.128C21.9703 36.3106 21.3052 35.6455 20.4879 35.6455C19.888 35.6455 19.3924 35.3138 19.1622 34.758C18.932 34.2023 19.0479 33.6171 19.4719 33.1931C19.7519 32.9132 19.9062 32.5409 19.9062 32.1448C19.9062 31.7489 19.752 31.3765 19.472 31.0963L18.0336 29.6581C17.4556 29.0802 16.5151 29.0802 15.9371 29.6581C15.5129 30.0822 14.9277 30.1982 14.3721 29.9679C13.8163 29.7376 13.4845 29.2421 13.4845 28.6421C13.4845 27.8247 12.8196 27.1597 12.0021 27.1597H9.96804C9.15066 27.1597 8.48557 27.8247 8.48557 28.6421C8.48557 29.1618 8.23626 29.6028 7.80838 29.8613V17.1744C7.80838 16.14 8.49255 15.2626 9.4322 14.9706ZM16.9831 45.3793C16.0971 44.5692 14.8712 44.3529 13.7487 44.8175C12.6264 45.2824 11.9128 46.3024 11.8591 47.5016H10.111C10.0573 46.3013 9.3439 45.2805 8.22195 44.8159C7.09989 44.3511 5.8737 44.5683 4.98699 45.3793L3.7508 44.143C4.56085 43.2571 4.77735 42.0311 4.31259 40.9087C3.84771 39.7865 2.82779 39.0728 1.62848 39.0191V37.2709C2.82779 37.2171 3.84771 36.5035 4.31259 35.3812C4.77747 34.2591 4.56085 33.0331 3.7508 32.147L4.98699 30.9108C5.873 31.7207 7.09884 31.9371 8.22125 31.4726C9.34343 31.0077 10.057 29.9877 10.1109 28.7885H11.8591C11.9128 29.9878 12.6266 31.0077 13.7487 31.4726C14.8712 31.9374 16.097 31.7209 16.9831 30.9108L18.2193 32.147C17.4093 33.033 17.1926 34.2589 17.6575 35.3814C18.1224 36.5035 19.1423 37.2171 20.3416 37.2709V39.0191C19.1423 39.0728 18.1223 39.7865 17.6575 40.9087C17.1926 42.031 17.4093 43.257 18.2193 44.143L16.9831 45.3793ZM39.9841 54.7556C39.9841 55.3543 39.497 55.8415 38.8983 55.8415H18.5716C17.9729 55.8415 17.4858 55.3543 17.4858 54.7556C17.4858 54.157 17.9729 53.67 18.5716 53.67H38.8983C39.4971 53.6699 39.9841 54.157 39.9841 54.7556ZM34.6191 52.0412H22.8344C23.4643 50.3309 23.8696 48.1102 23.9126 46.07H33.4625C33.5228 48.0877 33.9574 50.3096 34.6191 52.0412ZM47.354 44.4413H19.8766C19.8961 44.3448 19.9062 44.2458 19.9062 44.1452C19.9062 43.7492 19.7519 43.3769 19.472 43.0969C19.0479 42.6727 18.932 42.0877 19.1622 41.5319C19.3924 40.9762 19.8879 40.6444 20.4879 40.6444C21.0527 40.6444 21.5445 40.3267 21.7947 39.8608H49.6612V42.1341C49.6612 43.4063 48.6262 44.4413 47.354 44.4413ZM31.2653 42.1511C31.2653 42.6008 30.9007 42.9654 30.4509 42.9654H27.0186C26.5689 42.9654 26.2043 42.6008 26.2043 42.1511C26.2043 41.7013 26.5689 41.3367 27.0186 41.3367H30.4509C30.9007 41.3367 31.2653 41.7013 31.2653 42.1511ZM15.6696 4.77374C16.6994 4.77374 17.5763 4.11691 17.9103 3.20122H21.3878V12.4413C21.3878 16.4924 24.6838 19.7882 28.7348 19.7882C32.7859 19.7882 36.0818 16.4924 36.0818 12.4413V3.20122H39.5592C39.8932 4.11702 40.7702 4.77386 41.8 4.77386C43.1161 4.77386 44.187 3.7031 44.187 2.38687C44.187 1.07064 43.1161 0 41.7999 0C40.77 0 39.893 0.656835 39.5591 1.57263H35.2673C34.8176 1.57263 34.453 1.93723 34.453 2.38699V11.6271H29.5491V9.96548C30.4647 9.63148 31.1216 8.75454 31.1216 7.72484C31.1216 6.40873 30.0508 5.33786 28.7347 5.33786C27.4186 5.33786 26.3477 6.40862 26.3477 7.72484C26.3477 8.75465 27.0046 9.6316 27.9204 9.9656V11.627H23.0164V2.38687C23.0164 1.93712 22.6518 1.57252 22.2021 1.57252H17.9102C17.5763 0.656835 16.6993 0 15.6696 0C14.3535 0 13.2827 1.07076 13.2827 2.38687C13.2827 3.70298 14.3535 4.77374 15.6696 4.77374ZM41.7999 1.62871C42.218 1.62871 42.5581 1.96888 42.5581 2.38699C42.5581 2.8051 42.218 3.14527 41.7999 3.14527C41.3817 3.14527 41.0417 2.8051 41.0417 2.38699C41.0417 1.96888 41.3819 1.62871 41.7999 1.62871ZM28.7347 6.96657C29.1528 6.96657 29.4929 7.30673 29.4929 7.72484C29.4929 8.14296 29.1528 8.48301 28.7347 8.48301C28.3166 8.48301 27.9764 8.14296 27.9764 7.72484C27.9764 7.30673 28.3167 6.96657 28.7347 6.96657ZM34.3953 13.2557C33.9989 16.0245 31.6115 18.1595 28.7348 18.1595C25.8582 18.1595 23.4707 16.0244 23.0744 13.2557H34.3953ZM15.6696 1.62871C16.0877 1.62871 16.4277 1.96876 16.4277 2.38687C16.4277 2.80498 16.0877 3.14503 15.6696 3.14503C15.2515 3.14503 14.9114 2.80498 14.9114 2.38687C14.9114 1.96876 15.2515 1.62871 15.6696 1.62871ZM10.9851 32.3603C7.79535 32.3603 5.20023 34.9553 5.20023 38.145C5.20023 41.3347 7.79523 43.9299 10.9851 43.9299C14.1748 43.9299 16.7698 41.3347 16.7698 38.145C16.7698 34.9553 14.1748 32.3603 10.9851 32.3603ZM10.9851 42.301C8.69335 42.301 6.82894 40.4366 6.82894 38.1449C6.82894 35.8532 8.69335 33.9889 10.9851 33.9889C13.2766 33.9889 15.1411 35.8532 15.1411 38.1449C15.1411 40.4366 13.2766 42.301 10.9851 42.301Z" fill="#0C0E11"/>
</svg>
