<svg width="55" height="55" viewBox="0 0 55 55" fill="none" xmlns="http://www.w3.org/2000/svg">
<rect x="1" y="1" width="53" height="53" rx="26.5" fill="#00489A"/>
<rect x="1" y="1" width="53" height="53" rx="26.5" stroke="white" stroke-width="2"/>
<g clipPath="url(#clip0_1604_122)">
<path d="M20.0939 31.6183C22.5597 34.5659 25.528 36.8867 28.9159 38.5288C30.2058 39.1401 31.9308 39.8653 33.8527 39.9896C33.9718 39.9948 34.0858 40 34.2049 40C35.4948 40 36.5309 39.5545 37.3753 38.6376C37.3805 38.6324 37.3908 38.622 37.396 38.6117C37.6964 38.2491 38.0383 37.9227 38.3958 37.5756C38.6393 37.3425 38.8879 37.099 39.1262 36.8504C40.2296 35.7004 40.2296 34.2395 39.1158 33.1258L36.0025 30.0124C35.4741 29.4633 34.8421 29.1732 34.179 29.1732C33.516 29.1732 32.8788 29.4633 32.3349 30.0073L30.4803 31.8618C30.3094 31.7634 30.1332 31.6753 29.9675 31.5924C29.7603 31.4888 29.5686 31.3904 29.3977 31.2816C27.7089 30.2093 26.1755 28.8106 24.7095 27.0131C23.9687 26.0754 23.4714 25.288 23.1243 24.4851C23.6113 24.0448 24.0672 23.5837 24.5075 23.133C24.6629 22.9724 24.8235 22.8119 24.9841 22.6513C25.5435 22.0918 25.844 21.4443 25.844 20.7864C25.844 20.1285 25.5487 19.4809 24.9841 18.9215L23.4403 17.3777C23.259 17.1964 23.0881 17.0203 22.9119 16.839C22.5701 16.4867 22.2126 16.1241 21.8604 15.7978C21.3268 15.2746 20.7 15 20.0369 15C19.379 15 18.747 15.2746 18.1927 15.8029L16.2553 17.7404C15.5508 18.4449 15.1519 19.2996 15.069 20.2891C14.9706 21.5271 15.1985 22.8429 15.7891 24.4333C16.6956 26.8939 18.0632 29.1784 20.0939 31.6183ZM16.333 20.3978C16.3952 19.7089 16.6594 19.1339 17.1567 18.6366L19.0837 16.7095C19.3842 16.4194 19.7157 16.2692 20.0369 16.2692C20.3529 16.2692 20.6741 16.4194 20.9693 16.7199C21.3164 17.041 21.6428 17.3777 21.995 17.7352C22.1712 17.9165 22.3525 18.0978 22.5338 18.2843L24.0775 19.828C24.3987 20.1492 24.5645 20.4755 24.5645 20.7967C24.5645 21.1179 24.3987 21.4443 24.0775 21.7654C23.9169 21.926 23.7563 22.0918 23.5957 22.2524C23.114 22.7393 22.6633 23.2004 22.166 23.6407C22.1556 23.6511 22.1504 23.6562 22.1401 23.6666C21.7101 24.0966 21.7775 24.5058 21.8811 24.8166C21.8863 24.8322 21.8914 24.8425 21.8966 24.8581C22.2955 25.8164 22.8498 26.7281 23.7149 27.816C25.269 29.7327 26.9059 31.2194 28.7087 32.3643C28.9314 32.5093 29.1697 32.6233 29.3925 32.7373C29.5997 32.8409 29.7914 32.9393 29.9623 33.0481C29.983 33.0584 29.9986 33.0688 30.0193 33.0792C30.1902 33.1672 30.356 33.2087 30.5218 33.2087C30.9362 33.2087 31.2056 32.9445 31.2936 32.8564L33.2311 30.919C33.5315 30.6185 33.8579 30.4579 34.179 30.4579C34.5727 30.4579 34.8939 30.7014 35.096 30.919L38.2197 34.0375C38.8413 34.6591 38.8361 35.3326 38.2041 35.9905C37.9865 36.2236 37.7586 36.4463 37.5151 36.6794C37.1525 37.0317 36.7744 37.3943 36.4325 37.8036C35.8367 38.4459 35.127 38.7464 34.2101 38.7464C34.1221 38.7464 34.0288 38.7412 33.9408 38.736C32.2416 38.6272 30.6616 37.9642 29.4754 37.3995C26.2532 35.8402 23.4248 33.6283 21.0781 30.8206C19.1459 28.4946 17.8456 26.3293 16.9857 24.0085C16.4521 22.5839 16.2501 21.4391 16.333 20.3978Z" fill="white"/>
</g>
<defs>
<clipPath id="clip0_1604_122">
<rect width="25" height="25" fill="white" transform="translate(15 15)"/>
</clipPath>
</defs>
</svg>

