<svg width="55" height="55" viewBox="0 0 55 55" fill="none" xmlns="http://www.w3.org/2000/svg">
<rect x="1" y="1" width="53" height="53" rx="26.5" fill="#00489A"/>
<rect x="1" y="1" width="53" height="53" rx="26.5" stroke="white" stroke-width="2"/>
<path d="M27.5 15C22.6537 15 18.7109 18.9428 18.7109 23.7891C18.7109 25.4265 19.1645 27.0244 20.0229 28.4107L26.9997 39.6538C27.1333 39.8691 27.3688 40 27.622 40C27.624 40 27.6259 40 27.6278 40C27.8833 39.998 28.1192 39.8631 28.2504 39.6439L35.0494 28.292C35.8604 26.935 36.2891 25.3779 36.2891 23.7891C36.2891 18.9428 32.3463 15 27.5 15ZM33.7923 27.5399L27.6109 37.8606L21.2679 27.639C20.5534 26.4851 20.166 25.1538 20.166 23.7891C20.166 19.7505 23.4614 16.4551 27.5 16.4551C31.5386 16.4551 34.8291 19.7505 34.8291 23.7891C34.8291 25.1133 34.4672 26.4105 33.7923 27.5399Z" fill="white"/>
<path d="M27.5 19.3945C25.0769 19.3945 23.1055 21.3659 23.1055 23.7891C23.1055 26.1967 25.0448 28.1836 27.5 28.1836C29.9855 28.1836 31.8945 26.1703 31.8945 23.7891C31.8945 21.3659 29.9231 19.3945 27.5 19.3945ZM27.5 26.7285C25.8761 26.7285 24.5605 25.4085 24.5605 23.7891C24.5605 22.1736 25.8846 20.8496 27.5 20.8496C29.1154 20.8496 30.4346 22.1736 30.4346 23.7891C30.4346 25.3849 29.1496 26.7285 27.5 26.7285Z" fill="white"/>
</svg>

