<svg width="55" height="55" viewBox="0 0 55 55" fill="none" xmlns="http://www.w3.org/2000/svg">
<rect x="1" y="1" width="53" height="53" rx="26.5" fill="#00489A"/>
<rect x="1" y="1" width="53" height="53" rx="26.5" stroke="white" stroke-width="2"/>
<path d="M37.8027 18.7109H17.1973C15.9833 18.7109 15 19.7003 15 20.9082V34.0918C15 35.3069 15.9905 36.2891 17.1973 36.2891H37.8027C39.0066 36.2891 40 35.311 40 34.0918V20.9082C40 19.7024 39.0207 18.7109 37.8027 18.7109ZM37.495 20.1758C37.0461 20.6223 29.3205 28.3073 29.0537 28.5726C28.6387 28.9876 28.0869 29.2162 27.5 29.2162C26.9131 29.2162 26.3613 28.9876 25.9449 28.5712C25.7655 28.3928 18.1251 20.7927 17.505 20.1758H37.495ZM16.4648 33.7937V21.2073L22.7948 27.5039L16.4648 33.7937ZM17.5059 34.8242L23.8334 28.537L24.9105 29.6084C25.6022 30.3001 26.5218 30.681 27.5 30.681C28.4782 30.681 29.3978 30.3001 30.0881 29.6098L31.1666 28.537L37.4941 34.8242H17.5059ZM38.5352 33.7937L32.2052 27.5039L38.5352 21.2073V33.7937Z" fill="white"/>
</svg>

