<svg width="50" height="50" viewBox="0 0 50 50" fill="none" xmlns="http://www.w3.org/2000/svg">
<path d="M19.6727 5.99609L21.857 7.75176L21.1219 10.4557C21.0101 10.8662 21.1604 11.2931 21.5045 11.5432C21.6836 11.6733 21.892 11.7388 22.1008 11.7388C22.2934 11.7388 22.4863 11.6832 22.6571 11.5714L25.0017 10.0365L27.3465 11.5714C27.7024 11.8044 28.1548 11.7934 28.4989 11.5433C28.843 11.2933 28.9933 10.8664 28.8818 10.4559L28.1466 7.75166L30.3309 5.99609C30.6625 5.72959 30.7918 5.296 30.6603 4.89141C30.5287 4.48672 30.1693 4.21191 29.7444 4.19131L26.9454 4.05488L25.9507 1.43506C25.9506 1.43496 25.9506 1.43496 25.9506 1.43486C25.7997 1.0377 25.4272 0.781152 25.0015 0.78125C24.5758 0.781348 24.2035 1.03799 24.0528 1.43506L23.058 4.05488L20.2591 4.19131C19.8341 4.21201 19.4747 4.48682 19.3432 4.89141C19.2117 5.296 19.341 5.72969 19.6727 5.99609ZM23.4922 5.59795C23.8956 5.57832 24.2488 5.32158 24.3917 4.94443L25.0017 3.3377L25.6117 4.94404C25.7547 5.32168 26.1078 5.57832 26.5113 5.59795L28.228 5.68164L26.8881 6.7585C26.5734 7.01152 26.4386 7.42676 26.5447 7.81572L26.9955 9.47422L25.5576 8.53291C25.3887 8.42236 25.1952 8.36709 25.0017 8.36709C24.8082 8.36709 24.6147 8.42236 24.4457 8.53281L23.0077 9.47412L23.4587 7.81543C23.5645 7.42588 23.4295 7.01084 23.115 6.7583L21.7753 5.68154L23.4922 5.59795ZM4.15169 21.1106L6.76419 20.0968L8.73861 22.0856C8.93451 22.283 9.19232 22.3868 9.45599 22.3868C9.59574 22.3868 9.73704 22.3576 9.87161 22.2977C10.2602 22.1247 10.496 21.7384 10.4722 21.3137L10.3154 18.5157L12.8171 17.2525C13.1968 17.0607 13.4132 16.6635 13.3688 16.2405C13.3243 15.8175 13.0298 15.4739 12.6184 15.3652L9.90892 14.6498L9.4807 11.8806C9.41576 11.4601 9.10482 11.1313 8.6887 11.0427C8.27269 10.9542 7.85472 11.1282 7.62445 11.4857L6.10687 13.8416L3.34066 13.3932C2.92269 13.3251 2.51283 13.5192 2.29993 13.888C2.08704 14.2566 2.12318 14.7076 2.39173 15.0366L4.16322 17.2079L2.88197 19.7002C2.68743 20.0785 2.74564 20.5272 3.03031 20.8435C3.31478 21.1597 3.75482 21.2645 4.15169 21.1106ZM6.21048 15.4414C6.60872 15.5061 7.00745 15.3285 7.2262 14.9892L8.15687 13.5444L8.41956 15.2435C8.48158 15.6421 8.77357 15.9661 9.16351 16.0691L10.8252 16.5079L9.29095 17.2826C8.93089 17.4644 8.71273 17.8421 8.73509 18.2454L8.83128 19.9614L7.62025 18.7414C7.42611 18.546 7.16556 18.4417 6.90003 18.4417C6.77669 18.4417 6.65228 18.4642 6.53294 18.5105L4.9307 19.1323L5.71644 17.6041C5.9013 17.245 5.8557 16.8108 5.60042 16.498L4.514 15.1663L6.21048 15.4414ZM47.7034 13.888C47.4907 13.5194 47.0825 13.3253 46.663 13.3933L43.8967 13.8418L42.379 11.486C42.1489 11.1284 41.7307 10.9543 41.315 11.0429C40.8988 11.1313 40.5878 11.46 40.5227 11.8806L40.0945 14.65L37.385 15.3654C36.9737 15.474 36.6791 15.8175 36.6347 16.2406C36.5902 16.6638 36.8069 17.061 37.1866 17.2527L39.688 18.5158L39.5312 21.3139C39.5075 21.7387 39.7432 22.1249 40.1318 22.2979C40.2664 22.3577 40.4077 22.3869 40.5475 22.3869C40.8112 22.3869 41.0691 22.283 41.265 22.0856L43.2392 20.0969L45.8516 21.1106C46.2481 21.2645 46.6882 21.1599 46.9731 20.8437C47.2577 20.5276 47.3161 20.0789 47.1216 19.7004L45.8403 17.2081L47.6118 15.0367C47.8803 14.7075 47.9163 14.2566 47.7034 13.888ZM44.2868 17.6038L45.0726 19.1322L43.47 18.5103C43.0938 18.3646 42.6673 18.4553 42.3827 18.7416L41.172 19.9613L41.2682 18.2447C41.2906 17.842 41.0723 17.4643 40.7123 17.2824L39.1782 16.5077L40.8397 16.0689C41.2301 15.9659 41.5222 15.6416 41.5838 15.2428L41.8464 13.5442L42.777 14.9888C42.9955 15.3284 43.3946 15.5059 43.7928 15.4413L45.4894 15.1662L44.403 16.4979C44.148 16.8106 44.1023 17.2445 44.2868 17.6038ZM13.472 37.8924C13.6202 38.0572 13.8315 38.1514 14.0531 38.1514L35.9504 38.1513C36.1721 38.1513 36.3833 38.0571 36.5315 37.8922C36.6797 37.7273 36.7508 37.5073 36.7272 37.2868C36.4194 34.4106 35.0633 31.7536 32.9088 29.8053C31.6205 28.6402 30.1076 27.7858 28.4781 27.2839C30.2065 26.1482 31.3508 24.1933 31.3508 21.975C31.3508 18.4741 28.5027 15.626 25.0017 15.626C21.5007 15.626 18.6526 18.4741 18.6526 21.975C18.6526 24.1932 19.7969 26.1481 21.5253 27.2839C19.8957 27.7859 18.3827 28.6402 17.0944 29.8054C14.9399 31.7537 13.5839 34.4108 13.2761 37.2871C13.2526 37.5074 13.3238 37.7275 13.472 37.8924ZM20.2152 21.9751C20.2152 19.3358 22.3624 17.1886 25.0018 17.1886C27.6411 17.1886 29.7884 19.3358 29.7884 21.9751C29.7884 24.614 27.6418 26.7609 25.0032 26.7616C25.0028 26.7616 25.0023 26.7616 25.0019 26.7616C25.0015 26.7616 25.001 26.7616 25.0006 26.7616C22.3618 26.7609 20.2152 24.614 20.2152 21.9751ZM25.0008 28.3241H25.0018H25.0028C29.9498 28.3246 34.1228 31.8205 35.0441 36.5889L14.9592 36.589C15.8806 31.8205 20.0535 28.3246 25.0008 28.3241ZM44.8334 29.07C44.9391 28.2334 44.9932 27.3848 44.9932 26.5385C44.9932 26.107 44.6434 25.7572 44.2119 25.7572C43.7805 25.7572 43.4307 26.107 43.4307 26.5385C43.4307 27.2989 43.3837 28.0612 43.2913 28.8132C41.4781 28.9249 40.0368 30.4349 40.0368 32.2757C40.0368 33.3845 40.5603 34.3728 41.3723 35.0084C38.7351 40.1054 33.928 43.6577 28.2996 44.6718C27.8453 43.2842 26.5391 42.2788 25.0017 42.2788C23.4644 42.2788 22.158 43.2842 21.7038 44.6717C16.1123 43.6638 11.3254 40.1454 8.67806 35.0976C9.55775 34.4675 10.1326 33.4377 10.1326 32.2756C10.1326 30.3785 8.60208 28.833 6.71107 28.8069C6.61917 28.057 6.57269 27.2969 6.57269 26.5384C6.57269 26.1069 6.22288 25.7571 5.79144 25.7571C5.35999 25.7571 5.01019 26.1069 5.01019 26.5384C5.01019 27.4084 5.06761 28.2806 5.17904 29.1396C4.00599 29.6969 3.19281 30.8929 3.19281 32.2756C3.19281 34.1889 4.74935 35.7455 6.66273 35.7455C6.8554 35.7455 7.04427 35.729 7.22845 35.6986C8.6263 38.4035 10.6449 40.7804 13.0979 42.6012C15.5961 44.4555 18.5118 45.7045 21.5665 46.2353C21.804 47.9189 23.2536 49.2187 25.0017 49.2187C26.7498 49.2187 28.1993 47.9189 28.4367 46.2353C31.5028 45.7027 34.4278 44.4468 36.9322 42.5813C39.3823 40.7564 41.3955 38.3771 42.7889 35.6705C43.0206 35.7194 43.2607 35.7456 43.5068 35.7456C45.4201 35.7456 46.9766 34.1891 46.9766 32.2757C46.9765 30.8321 46.0903 29.5921 44.8334 29.07ZM4.7554 32.2757C4.7554 31.2239 5.61107 30.3684 6.66283 30.3684C7.71458 30.3684 8.57015 31.224 8.57015 32.2757C8.57015 33.3274 7.71449 34.1831 6.66283 34.1831C5.61097 34.1831 4.7554 33.3274 4.7554 32.2757ZM25.0017 47.6562C23.9499 47.6562 23.0944 46.8005 23.0944 45.7488C23.0944 44.6971 23.95 43.8414 25.0017 43.8414C26.0534 43.8414 26.909 44.6971 26.909 45.7488C26.909 46.8005 26.0535 47.6562 25.0017 47.6562ZM43.5067 34.1831C42.4549 34.1831 41.5993 33.3274 41.5993 32.2757C41.5993 31.2239 42.455 30.3684 43.5067 30.3684C44.5583 30.3684 45.414 31.224 45.414 32.2757C45.414 33.3274 44.5584 34.1831 43.5067 34.1831Z" fill="black"/>
</svg>
