<svg width="19" height="20" viewBox="0 0 19 20" fill="none" xmlns="http://www.w3.org/2000/svg">
<g clipPath="url(#clip0_1502_184)">
<path d="M10.7835 19.9609H7.73491C7.22569 19.9609 6.81146 19.5258 6.81146 18.9908V11.7667H5.03282C4.52361 11.7667 4.10938 11.3313 4.10938 10.7965V7.70096C4.10938 7.16599 4.52361 6.7308 5.03282 6.7308H6.81146V5.18066C6.81146 3.64365 7.27086 2.33597 8.13985 1.39923C9.01275 0.458221 10.2326 -0.0390625 11.6676 -0.0390625L13.9927 -0.0350952C14.501 -0.0341797 14.9145 0.401001 14.9145 0.935059V3.8092C14.9145 4.34418 14.5004 4.77936 13.9914 4.77936L12.4259 4.77997C11.9485 4.77997 11.827 4.88052 11.801 4.91135C11.7581 4.96246 11.7071 5.10696 11.7071 5.50598V6.73065H13.8737C14.0368 6.73065 14.1948 6.77292 14.3306 6.85257C14.6236 7.02454 14.8057 7.3497 14.8057 7.70111L14.8046 10.7967C14.8046 11.3313 14.3903 11.7665 13.8811 11.7665H11.7071V18.9908C11.7071 19.5258 11.2928 19.9609 10.7835 19.9609ZM7.9275 18.7885H10.591V11.2418C10.591 10.8846 10.8676 10.594 11.2075 10.594H13.6885L13.6895 7.90329H11.2074C10.8675 7.90329 10.591 7.61276 10.591 7.25555V5.50598C10.591 5.04791 10.6353 4.52698 10.9644 4.13544C11.362 3.66211 11.9888 3.60748 12.4257 3.60748L13.7985 3.60687V1.13709L11.6668 1.13342C9.36061 1.13342 7.9275 2.68433 7.9275 5.18066V7.25555C7.9275 7.61261 7.65096 7.90329 7.31109 7.90329H5.22542V10.594H7.31109C7.65096 10.594 7.9275 10.8846 7.9275 11.2418V18.7885Z" fill="white"/>
</g>
<defs>
<clipPath id="clip0_1502_184">
<rect width="19" height="20" fill="white"/>
</clipPath>
</defs>
</svg>
