<svg width="20" height="20" viewBox="0 0 20 20" fill="none" xmlns="http://www.w3.org/2000/svg">
<g clipPath="url(#clip0_1502_97)">
<path d="M9.99998 20C4.48817 20 0 15.512 0 10C0 4.48821 4.48817 3.78994e-05 9.99998 3.78994e-05C12.6536 -0.00728628 15.2 1.04722 17.0715 2.92867L17.4107 3.26785L14.0417 6.63106L13.7024 6.2917C12.097 4.6891 9.64249 4.30196 7.62171 5.33258C5.60092 6.3632 4.47317 8.57755 4.82805 10.8181C5.18275 13.0586 6.93951 14.816 9.17984 15.172C11.4202 15.5279 13.6351 14.4013 14.6667 12.3811H9.52373V7.61913H19.7202L19.7977 7.99999C19.9318 8.65829 19.9996 9.32829 20 10C20 15.512 15.512 20 9.99998 20ZM9.99998 0.952533C5.01185 0.952533 0.952321 5.01189 0.952321 10C0.952321 14.9882 5.01185 19.0477 9.99998 19.0477C14.9881 19.0477 19.0476 14.9882 19.0476 10C19.0473 9.52168 19.0095 9.04404 18.9345 8.57145H10.4762V11.4286H16.0595L15.8334 12.0654C14.9266 14.6221 12.4607 16.2906 9.75009 16.1815C7.03961 16.0725 4.71592 14.2114 4.01733 11.5901C3.31874 8.96888 4.4083 6.19823 6.70496 4.75484C9.0018 3.31128 11.9709 3.53135 14.0297 5.29771L16.0536 3.27396C14.395 1.77337 12.2365 0.945558 9.99998 0.952533Z" fill="white"/>
</g>
<defs>
<clipPath id="clip0_1502_97">
<rect width="20" height="20" fill="white"/>
</clipPath>
</defs>
</svg>
