<svg width="20" height="20" viewBox="0 0 20 20" fill="none" xmlns="http://www.w3.org/2000/svg">
<g clipPath="url(#clip0_1502_177)">
<path d="M15.4923 20.0005C15.5782 20.0005 19.4607 19.9996 19.3757 19.9996C19.7207 19.9996 20.0007 19.7196 20.0007 19.3746C19.709 12.8271 21.5357 5.91797 14.719 5.91797C13.4082 5.91797 12.364 6.36547 11.6115 6.95714C11.6115 5.73964 10.2957 6.41297 7.25816 6.23214C6.91316 6.23214 6.63316 6.51214 6.63316 6.85714C6.88483 18.6621 6.07149 19.9996 7.25816 19.9996H11.1415C12.269 19.9996 11.5515 18.4096 11.7665 13.1763C11.7665 11.0146 12.3915 10.5913 13.4715 10.5913C14.6665 10.5913 14.8673 11.4213 14.8673 13.2813C15.0815 18.4205 14.369 20.0005 15.4923 20.0005ZM13.4715 9.3413C9.72899 9.3413 10.5165 13.4563 10.5165 18.7496H7.88316V7.48214H10.3615V8.5638C10.3615 9.1638 11.2757 9.4588 11.594 8.85547C12.004 8.07714 13.069 7.16797 14.719 7.16797C17.6582 7.16797 18.7507 8.61214 18.7507 12.498V18.7505H16.1173C16.1173 12.7971 16.7473 9.3413 13.4715 9.3413Z" fill="white"/>
<path d="M0.934546 6.23275C-0.248787 6.23275 0.561213 7.55358 0.309546 19.3752C0.309546 19.7202 0.589546 20.0002 0.934546 20.0002H4.82205C6.00538 20.0002 5.19538 18.6794 5.44705 6.85775C5.44705 5.77858 3.87955 6.41525 0.934546 6.23275ZM4.19705 18.7502H1.55955V7.48275H4.19705V18.7502Z" fill="white"/>
<path d="M2.87665 0C-0.936686 0 -0.913353 5.77417 2.87665 5.77417C6.66415 5.77417 6.69415 0 2.87665 0ZM2.87665 4.52417C0.736647 4.52417 0.716647 1.25 2.87665 1.25C5.04081 1.25 5.01331 4.52417 2.87665 4.52417Z" fill="white"/>
</g>
<defs>
<clipPath id="clip0_1502_177">
<rect width="20" height="20" fill="white"/>
</clipPath>
</defs>
</svg>
