<svg width="32" height="32" viewBox="0 0 32 32" fill="none" xmlns="http://www.w3.org/2000/svg">
<g clipPath="url(#clip0_1483_8241)">
<mask id="mask0_1483_8241" style="mask-type:luminance" maskUnits="userSpaceOnUse" x="0" y="0" width="32" height="32">
<path d="M32 0H0V32H32V0Z" fill="white"/>
</mask>
<g mask="url(#mask0_1483_8241)">
<path d="M31.5461 12.708C31.5494 12.6759 31.5499 12.6434 31.5479 12.6111C31.5592 12.4244 31.4831 12.2354 31.326 12.1097L27.6081 9.13413V7.66545C27.6081 6.28496 26.485 5.16187 25.1045 5.16187H22.6449L16.4746 0.22363L16.474 0.222782C16.3539 0.0726538 16.1758 -0.00329816 15.9974 0.000109837C15.8189 -0.00329816 15.6409 0.0726378 15.5207 0.222782L15.5201 0.22363L9.34984 5.16187H6.89018C5.50968 5.16187 4.38659 6.28496 4.38659 7.66545V9.13414L0.668673 12.1097C0.511585 12.2354 0.43552 12.4244 0.446832 12.611C0.444848 12.6434 0.445312 12.6758 0.448592 12.708C0.44648 12.7285 0.445312 12.7493 0.445312 12.7703V29.1807C0.445312 30.7352 1.78006 31.9999 3.42067 31.9999H28.574C30.2146 31.9999 31.5494 30.7352 31.5494 29.1807V12.7703C31.5494 12.7493 31.5483 12.7285 31.5461 12.708ZM27.6081 10.6594L30.0467 12.611L27.6081 14.5627V10.6594ZM15.9974 1.36693L20.7391 5.16184H11.2557L15.9974 1.36693ZM5.57746 7.66542C5.57746 6.94161 6.16637 6.3527 6.89018 6.3527H25.1045C25.8284 6.3527 26.4173 6.94161 26.4173 7.66542V9.42763V9.42931V15.5158L15.9974 23.8552L5.57746 15.5158V7.66542ZM4.38659 10.6594V14.5627L1.94805 12.611L4.38659 10.6594ZM1.63619 29.1807V13.8867L11.3274 21.643L1.8085 29.8781C1.69814 29.6666 1.63619 29.4302 1.63619 29.1807ZM28.574 30.8091H3.42069C3.16786 30.8091 2.92731 30.7606 2.70918 30.6737L12.273 22.3997L15.5201 24.9985L15.5207 24.9994C15.6383 25.1463 15.8113 25.2227 15.986 25.2227C15.9898 25.2227 15.9936 25.2223 15.9974 25.2223C16.0012 25.2223 16.005 25.2227 16.0088 25.2227C16.1834 25.2227 16.3565 25.1463 16.474 24.9994L16.4746 24.9985L19.7218 22.3997L29.2855 30.6737C29.0674 30.7606 28.8269 30.8091 28.574 30.8091ZM30.3585 29.1807C30.3585 29.4302 30.2965 29.6666 30.1862 29.8782L20.6673 21.643L30.3585 13.8868V29.1807ZM9.86936 11.9867H22.1882C22.5171 11.9867 22.7837 11.7202 22.7837 11.3913C22.7837 11.0624 22.5171 10.7959 22.1882 10.7959H9.86936C9.5405 10.7959 9.27392 11.0624 9.27392 11.3913C9.27392 11.7201 9.5405 11.9867 9.86936 11.9867ZM22.7837 14.9738C22.7837 14.6449 22.5171 14.3783 22.1882 14.3783H9.86936C9.5405 14.3783 9.27392 14.6449 9.27392 14.9738C9.27392 15.3027 9.5405 15.5692 9.86936 15.5692H22.1882C22.5171 15.5692 22.7837 15.3027 22.7837 14.9738Z" fill="#B8BFC5"/>
</g>
</g>
<defs>
<clipPath id="clip0_1483_8241">
<rect width="32" height="32" fill="white"/>
</clipPath>
</defs>
</svg>
