<svg width="50" height="50" viewBox="0 0 50 50" fill="none" xmlns="http://www.w3.org/2000/svg">
<path d="M38.0846 32.3413L38.1023 32.2905C38.2301 31.8106 38.4297 31.3528 38.6944 30.9325C39.0304 30.5819 39.4185 30.2851 39.8449 30.0526C40.705 29.6139 41.4189 28.9346 41.8998 28.0974C42.2351 27.1978 42.3092 26.2216 42.1134 25.2817C42.0237 24.7817 42.0103 24.271 42.0737 23.767C42.2251 23.3083 42.4449 22.8751 42.7258 22.4822C43.3172 21.7016 43.6726 20.7679 43.75 19.7916C43.6723 18.8158 43.3172 17.8826 42.7267 17.102C42.4452 16.7088 42.225 16.2753 42.0735 15.8162C42.0101 15.3125 42.0235 14.8021 42.1132 14.3025C42.3088 13.3626 42.2351 12.3866 41.9006 11.4868C41.4195 10.6504 40.7061 9.97152 39.8468 9.53261C39.4199 9.29956 39.0314 9.00207 38.6952 8.65063C38.4304 8.23033 38.2305 7.77251 38.1022 7.29261C37.8805 6.35314 37.3944 5.49678 36.7015 4.8248C35.9134 4.28319 34.9832 3.98607 34.0271 3.97063C33.5415 3.94916 33.0623 3.85169 32.607 3.68178C32.2007 3.42463 31.8358 3.10738 31.5246 2.74084C30.9187 1.98004 30.1023 1.41441 29.1771 1.11449C28.241 0.982055 27.2867 1.12745 26.4325 1.53261C25.9776 1.73228 25.4943 1.85938 25 1.90928C24.5061 1.85956 24.0232 1.73256 23.5687 1.53292C22.7145 1.1271 21.7595 0.982165 20.8232 1.11626C19.8985 1.41509 19.0822 1.97965 18.4764 2.73949C18.1657 3.10658 17.8007 3.42391 17.394 3.68043C16.9386 3.85034 16.4594 3.9478 15.9739 3.96928C15.0178 3.98471 14.0875 4.28183 13.2995 4.82345C12.6064 5.49588 12.12 6.35246 11.8977 7.2922C11.7699 7.77211 11.5703 8.22995 11.3056 8.65022C10.9696 9.00088 10.5815 9.29766 10.1551 9.53011C9.29503 9.96879 8.58108 10.6481 8.10021 11.4853C7.76486 12.385 7.6908 13.3611 7.88656 14.3011C7.97632 14.801 7.98971 15.3117 7.92625 15.8157C7.77493 16.2744 7.55508 16.7076 7.27417 17.1005C6.6827 17.8813 6.32729 18.8151 6.25 19.7916C6.32773 20.7673 6.68279 21.7005 7.27333 22.4812C7.55476 22.8743 7.77497 23.3078 7.92646 23.767C7.98997 24.2708 7.97659 24.7814 7.88677 25.2812C7.69116 26.221 7.76485 27.197 8.09938 28.0969C8.58046 28.9333 9.29393 29.6121 10.1532 30.0511C10.5801 30.2841 10.9686 30.5816 11.3048 30.933C11.5696 31.3533 11.7695 31.8112 11.8978 32.2911L11.9171 32.3465C11.9137 32.3519 11.9081 32.3547 11.9049 32.3602L6.53177 41.6666C6.33538 42.0064 6.23901 42.3948 6.25377 42.7869C6.26852 43.1791 6.39381 43.5592 6.61517 43.8833C6.83654 44.2073 7.14498 44.4623 7.50494 44.6187C7.8649 44.7751 8.26173 44.8265 8.64969 44.7672L12.2761 44.2158L13.6128 47.6348C13.7543 48.001 13.9971 48.3194 14.3128 48.5527C14.6286 48.7859 15.0042 48.9245 15.3958 48.9521C15.4497 48.9562 15.5036 48.9582 15.5576 48.9582C15.9228 48.9591 16.2818 48.8632 16.5979 48.6802C16.914 48.4972 17.176 48.2337 17.3571 47.9166L22.9225 38.2757C23.1437 38.2045 23.3592 38.1263 23.5674 38.0502C24.0223 37.8506 24.5057 37.7237 25 37.6739C25.4938 37.7236 25.9768 37.8506 26.4312 38.0502C26.6396 38.1265 26.8574 38.2021 27.0787 38.2736L27.0833 38.2873L32.6426 47.9166C32.8237 48.2337 33.0857 48.4972 33.4018 48.6802C33.7179 48.8632 34.0768 48.9591 34.4421 48.9582C34.496 48.9582 34.5499 48.9562 34.6039 48.9521C34.9957 48.9244 35.3716 48.7857 35.6876 48.5522C36.0036 48.3188 36.2465 48.0002 36.3881 47.6338L37.7238 44.2158L41.3488 44.7672C41.7368 44.8269 42.1338 44.7756 42.494 44.6193C42.8542 44.4631 43.1629 44.2082 43.3845 43.884C43.606 43.5599 43.7315 43.1797 43.7463 42.7874C43.7611 42.395 43.6647 42.0065 43.4682 41.6666L38.0846 32.3413ZM15.5528 46.8749L13.9141 42.6807C13.8273 42.461 13.6686 42.2771 13.4639 42.1591C13.2593 42.0411 13.0207 41.9958 12.787 42.0307L8.33635 42.7082L13.0667 34.5148C13.139 34.6005 13.2164 34.6819 13.2985 34.7583C14.0866 35.3 15.0168 35.5971 15.9729 35.6125C16.4585 35.634 16.9377 35.7315 17.393 35.9014C17.7993 36.1585 18.1642 36.4758 18.4754 36.8423C19.0218 37.4865 19.707 37.9986 20.4796 38.3401L15.5528 46.8749ZM27.1458 36.093C26.4653 35.8017 25.7391 35.6316 25 35.5905C24.2608 35.6311 23.5345 35.8012 22.8542 36.093C22.3687 36.33 21.8339 36.4485 21.2937 36.4389C20.7774 36.2025 20.3252 35.8456 19.9754 35.3982C19.5054 34.8501 18.9433 34.3882 18.3143 34.0337C17.6438 33.7478 16.9285 33.5813 16.2007 33.5416C15.6483 33.5408 15.1044 33.4046 14.6169 33.1448C14.2537 32.7048 13.9989 32.1856 13.8732 31.6291C13.6798 30.9213 13.3663 30.2521 12.9461 29.6505C12.4697 29.1019 11.901 28.6409 11.2656 28.2884C10.7567 28.0381 10.3165 27.6673 9.98333 27.2082C9.84206 26.6556 9.833 26.0775 9.95688 25.5207C10.0804 24.7909 10.0818 24.0456 9.96094 23.3153C9.76686 22.6217 9.45549 21.9664 9.04031 21.3778C8.67881 20.9146 8.4361 20.3701 8.33333 19.7916C8.43596 19.2131 8.67869 18.6686 9.04031 18.2056C9.45589 17.6173 9.76729 16.9619 9.96094 16.2681C10.0818 15.5377 10.0804 14.7923 9.95688 14.0624C9.83275 13.5056 9.84218 12.9274 9.98437 12.3749C10.3172 11.9148 10.7576 11.5432 11.2671 11.2925C11.9028 10.9405 12.4719 10.4798 12.9486 9.93147C13.3678 9.33008 13.6805 8.6612 13.8733 7.95397C13.9996 7.39721 14.2546 6.8778 14.6179 6.4374C15.1055 6.17761 15.6493 6.04137 16.2018 6.04063C16.9297 6.00087 17.6451 5.83423 18.3156 5.54824C18.9451 5.1943 19.5074 4.7324 19.9768 4.18365C20.3267 3.73661 20.7788 3.3801 21.2951 3.14407C21.8349 3.13544 22.3691 3.25391 22.8546 3.4899C23.5349 3.78131 24.261 3.95144 25 3.99261C25.7392 3.95205 26.4655 3.78196 27.1458 3.49011C27.6317 3.25421 28.1662 3.13575 28.7062 3.14428C29.2226 3.38065 29.6748 3.73752 30.0246 4.1849C30.4946 4.73309 31.0567 5.1949 31.6857 5.54949C32.3562 5.83534 33.0715 6.00187 33.7993 6.04157C34.3517 6.04231 34.8956 6.17854 35.3831 6.43834C35.7463 6.87835 36.0011 7.39755 36.1268 7.95407C36.3202 8.66183 36.6337 9.33109 37.0539 9.93261C37.5303 10.4812 38.099 10.9422 38.7344 11.2947C39.2433 11.5451 39.6835 11.9159 40.0167 12.3749C40.1579 12.9275 40.167 13.5056 40.0431 14.0624C39.9196 14.7922 39.9182 15.5375 40.0391 16.2678C40.2331 16.9615 40.5445 17.6167 40.9597 18.2053C41.3212 18.6685 41.5639 19.2131 41.6667 19.7916C41.564 20.37 41.3213 20.9145 40.9597 21.3775C40.5441 21.9658 40.2327 22.6212 40.0391 23.315C39.9182 24.0454 39.9196 24.7908 40.0431 25.5207C40.1672 26.0775 40.1578 26.6558 40.0156 27.2082C39.6828 27.6683 39.2424 28.0399 38.7329 28.2906C38.0972 28.6427 37.5281 29.1033 37.0514 29.6517C36.6322 30.2531 36.3195 30.9219 36.1267 31.6292C36.0004 32.186 35.7454 32.7055 35.3821 33.1459C34.8945 33.4057 34.3507 33.542 33.7982 33.5427C33.0703 33.5825 32.3549 33.7491 31.6844 34.0351C31.0549 34.3891 30.4926 34.8509 30.0232 35.3997C29.6733 35.8467 29.2212 36.2033 28.7049 36.4393C28.1653 36.4472 27.6313 36.3286 27.1458 36.093ZM37.2135 42.0305C36.9799 41.9959 36.7414 42.0413 36.5368 42.1593C36.3322 42.2773 36.1735 42.461 36.0865 42.6805L34.4472 46.8749L29.5201 38.3401C30.2924 37.999 30.9774 37.4874 31.5236 36.8437C31.8343 36.4766 32.1993 36.1592 32.606 35.9027C33.0614 35.7328 33.5406 35.6353 34.0261 35.6139C34.9822 35.5984 35.9125 35.3013 36.7005 34.7597C36.783 34.6829 36.8608 34.6012 36.9334 34.515L41.6636 42.7082L37.2135 42.0305ZM37.5 19.7916C37.5 17.3193 36.7669 14.9026 35.3934 12.8469C34.0199 10.7913 32.0676 9.18917 29.7835 8.24308C27.4995 7.29698 24.9861 7.04944 22.5614 7.53176C20.1366 8.01407 17.9093 9.20458 16.1612 10.9527C14.413 12.7009 13.2225 14.9282 12.7402 17.3529C12.2579 19.7777 12.5054 22.291 13.4515 24.5751C14.3976 26.8592 15.9998 28.8114 18.0554 30.1849C20.111 31.5585 22.5277 32.2916 25 32.2916C28.3141 32.288 31.4914 30.9698 33.8348 28.6264C36.1783 26.283 37.4964 23.1057 37.5 19.7916ZM25 30.2082C22.9398 30.2082 20.9258 29.5973 19.2128 28.4527C17.4998 27.3081 16.1647 25.6813 15.3763 23.7779C14.5878 21.8745 14.3816 19.78 14.7835 17.7594C15.1854 15.7387 16.1775 13.8827 17.6343 12.4259C19.0911 10.9691 20.9472 9.97699 22.9678 9.57506C24.9884 9.17313 27.0829 9.37941 28.9863 10.1678C30.8897 10.9562 32.5165 12.2914 33.6611 14.0044C34.8057 15.7174 35.4167 17.7313 35.4167 19.7916C35.4134 22.5532 34.3149 25.2009 32.3621 27.1537C30.4093 29.1065 27.7617 30.205 25 30.2082ZM29.7445 15.7999C29.8584 15.8757 29.9562 15.9732 30.0323 16.0869C30.1085 16.2006 30.1615 16.3281 30.1883 16.4623C30.2152 16.5964 30.2153 16.7346 30.1887 16.8688C30.1621 17.003 30.1093 17.1306 30.0333 17.2444L25.8667 23.4944C25.7811 23.6225 25.6683 23.7301 25.5362 23.8093C25.4041 23.8886 25.256 23.9376 25.1027 23.9527C25.0681 23.9562 25.0335 23.9582 25 23.9582C24.7238 23.9582 24.4588 23.8484 24.2635 23.653L21.1385 20.528C20.9488 20.3316 20.8438 20.0684 20.8462 19.7953C20.8485 19.5222 20.9581 19.2609 21.1512 19.0678C21.3444 18.8747 21.6056 18.7651 21.8787 18.7627C22.1519 18.7604 22.415 18.8654 22.6115 19.0551L24.8382 21.2819L28.2999 16.0888C28.4532 15.859 28.6915 15.6995 28.9624 15.6453C29.2333 15.5912 29.5146 15.6468 29.7445 15.7999Z" fill="#0C0E11"/>
</svg>
