<svg width="18" height="18" viewBox="0 0 18 18" fill="none" xmlns="http://www.w3.org/2000/svg">
<g clipPath="url(#clip0_1616_285)">
<mask id="mask0_1616_285" style="mask-type:luminance" maskUnits="userSpaceOnUse" x="0" y="0" width="18" height="18">
<path d="M18 0H0V18H18V0Z" fill="white"/>
</mask>
<g mask="url(#mask0_1616_285)">
<path d="M17.4849 2.46049C17.2201 2.19523 16.7904 2.19477 16.5256 2.45936L8.38722 10.5763L5.45089 7.38718C5.19717 7.11176 4.7682 7.0939 4.49233 7.3476C4.21667 7.60131 4.19902 8.0305 4.45274 8.30616L7.86733 12.0144C7.92919 12.0817 8.004 12.1358 8.08728 12.1733C8.17056 12.2109 8.26058 12.2313 8.35192 12.2331C8.35688 12.2333 8.36166 12.2333 8.36641 12.2333C8.54593 12.2333 8.71812 12.1621 8.84534 12.0355L17.4835 3.41993C17.749 3.15539 17.7495 2.72573 17.4849 2.46049Z" fill="#F58027"/>
<path d="M17.3216 8.32159C16.9469 8.32159 16.6432 8.62527 16.6432 9C16.6432 13.2146 13.2146 16.6432 9 16.6432C4.78561 16.6432 1.35679 13.2146 1.35679 9C1.35679 4.78561 4.78561 1.35679 9 1.35679C9.37467 1.35679 9.67842 1.05311 9.67842 0.67841C9.67842 0.30368 9.37467 0 9 0C4.03735 0 0 4.03735 0 9C0 13.9624 4.03735 18 9 18C13.9624 18 18 13.9624 18 9C18 8.6253 17.6963 8.32159 17.3216 8.32159Z" fill="#F58027"/>
</g>
</g>
<defs>
<clipPath id="clip0_1616_285">
<rect width="18" height="18" fill="white"/>
</clipPath>
</defs>
</svg>
