<svg width="40" height="40" viewBox="0 0 40 40" fill="none" xmlns="http://www.w3.org/2000/svg">
<path d="M23.3327 16.6667C23.3327 15.7462 22.5865 15 21.666 15H20.8327C15.7701 15 11.666 19.104 11.666 24.1667C11.666 29.2293 15.7701 33.3333 20.8327 33.3333H29.166C34.2287 33.3333 38.3327 29.2293 38.3327 24.1667C38.3327 20.0152 35.5728 16.5081 31.7877 15.3804C30.849 15.1007 29.9993 15.8814 29.9993 16.861V16.9472C29.9993 17.7765 30.6235 18.4558 31.3902 18.7723C33.5085 19.6467 34.9993 21.7325 34.9993 24.1667C34.9993 27.3883 32.3877 30 29.166 30H20.8327C17.611 30 14.9993 27.3883 14.9993 24.1667C14.9993 20.945 17.611 18.3333 20.8327 18.3333H21.666C22.5865 18.3333 23.3327 17.5872 23.3327 16.6667Z" fill="#0C0E11"/>
<path d="M19.166 6.66675C24.2287 6.66675 28.3327 10.7708 28.3327 15.8334C28.3327 20.8961 24.2287 25.0001 19.166 25.0001H18.3327C17.4122 25.0001 16.666 24.2539 16.666 23.3334C16.666 22.4129 17.4122 21.6667 18.3327 21.6667H19.166C22.3877 21.6667 24.9993 19.0551 24.9993 15.8334C24.9993 12.6117 22.3877 10.0001 19.166 10.0001H10.8327C7.61102 10.0001 4.99935 12.6117 4.99935 15.8334C4.99935 18.2676 6.4902 20.3534 8.60857 21.2277C9.37515 21.5441 9.99935 22.2236 9.99935 23.0529V23.1391C9.99935 24.1186 9.14975 24.8994 8.211 24.6197C4.42588 23.4919 1.66602 19.9849 1.66602 15.8334C1.66602 10.7708 5.77007 6.66675 10.8327 6.66675H19.166Z" fill="#0C0E11"/>
</svg>
