<svg width="40" height="40" viewBox="0 0 40 40" fill="none" xmlns="http://www.w3.org/2000/svg">
<g clip-path="url(#clip0_3356_429)">
<path d="M38.75 3.125H1.25C0.56 3.125 0 3.685 0 4.375V35.625C0 36.315 0.56 36.875 1.25 36.875H38.75C39.44 36.875 40 36.315 40 35.625V4.375C40 3.685 39.44 3.125 38.75 3.125ZM37.5 5.625V10.625H2.5V5.625H37.5ZM2.5 34.375V13.125H37.5V34.375H2.5Z" fill="#0C0E11"/>
<path d="M6.25 9.3752C6.575 9.3752 6.9 9.24395 7.13125 9.00645C7.36875 8.7752 7.5 8.4502 7.5 8.1252C7.5 7.8002 7.36875 7.4752 7.13125 7.2377C6.66875 6.7752 5.83125 6.7752 5.3625 7.24395C5.13125 7.4752 5 7.79395 5 8.1252C5 8.45645 5.13125 8.7752 5.36875 9.0127C5.6 9.24395 5.92437 9.3752 6.25 9.3752Z" fill="#0C0E11"/>
<path d="M10 9.3752C10.325 9.3752 10.65 9.24395 10.8875 9.00645C11.1188 8.7752 11.25 8.4502 11.25 8.1252C11.25 7.8002 11.1187 7.4752 10.8812 7.2377C10.4187 6.7752 9.58125 6.7752 9.1125 7.24395C8.88125 7.4752 8.75 7.8002 8.75 8.1252C8.75 8.4502 8.88125 8.7752 9.11875 9.0127C9.35 9.24395 9.67437 9.3752 10 9.3752Z" fill="#0C0E11"/>
<path d="M13.75 9.3752C14.0812 9.3752 14.4 9.24395 14.6312 9.00645C14.8687 8.7752 15 8.45645 15 8.1252C15 7.8002 14.8687 7.4752 14.6312 7.2377C14.1687 6.7752 13.3312 6.7752 12.8625 7.24395C12.6312 7.4752 12.5 7.8002 12.5 8.1252C12.5 8.45645 12.6313 8.7752 12.8688 9.00645C13.1 9.24395 13.4244 9.3752 13.75 9.3752Z" fill="#0C0E11"/>
<path d="M19.375 15.625H6.25C5.56 15.625 5 16.185 5 16.875C5 17.565 5.56 18.125 6.25 18.125H19.375C20.065 18.125 20.625 17.565 20.625 16.875C20.625 16.185 20.065 15.625 19.375 15.625Z" fill="#0C0E11"/>
<path d="M19.375 20.625H6.25C5.56 20.625 5 21.185 5 21.875C5 22.565 5.56 23.125 6.25 23.125H19.375C20.065 23.125 20.625 22.565 20.625 21.875C20.625 21.185 20.065 20.625 19.375 20.625Z" fill="#0C0E11"/>
<path d="M19.375 25.625H6.25C5.56 25.625 5 26.185 5 26.875C5 27.565 5.56 28.125 6.25 28.125H19.375C20.065 28.125 20.625 27.565 20.625 26.875C20.625 26.185 20.065 25.625 19.375 25.625Z" fill="#0C0E11"/>
<path d="M33.75 15.625H24.375C23.685 15.625 23.125 16.185 23.125 16.875V26.875C23.125 27.565 23.685 28.125 24.375 28.125H33.75C34.44 28.125 35 27.565 35 26.875V16.875C35 16.185 34.44 15.625 33.75 15.625ZM32.5 25.625H25.625V18.125H32.5V25.625Z" fill="#0C0E11"/>
</g>
<defs>
<clipPath id="clip0_3356_429">
<rect width="40" height="40" fill="white"/>
</clipPath>
</defs>
</svg>
