<svg width="40" height="40" viewBox="0 0 40 40" fill="none" xmlns="http://www.w3.org/2000/svg">
<path d="M20.0008 39.3601C19.3528 39.3657 18.716 39.1916 18.1608 38.8573L11.2237 34.8001C8.62668 33.3477 6.45909 31.2355 4.93999 28.6769C3.4209 26.1184 2.60414 23.2041 2.57227 20.2287V9.143C2.57257 8.39597 2.80164 7.66694 3.22867 7.05399C3.65569 6.44104 4.26019 5.97356 4.96084 5.71443L18.7437 0.651573C19.5555 0.354424 20.4462 0.354424 21.258 0.651573L35.0408 5.71443C35.7415 5.97356 36.346 6.44104 36.773 7.05399C37.2 7.66694 37.4291 8.39597 37.4294 9.143V20.2287C37.3975 23.2041 36.5808 26.1184 35.0617 28.6769C33.5426 31.2355 31.375 33.3477 28.778 34.8001L21.8408 38.8573C21.2857 39.1916 20.6488 39.3657 20.0008 39.3601ZM20.0008 3.29157C19.9102 3.27506 19.8172 3.27506 19.7266 3.29157L5.94369 8.37729C5.78844 8.43478 5.65523 8.53967 5.56292 8.67711C5.47061 8.81454 5.4239 8.97754 5.42941 9.143V20.2287C5.46255 22.7045 6.14901 25.1275 7.41934 27.2528C8.68968 29.378 10.4988 31.13 12.6637 32.3316L19.6008 36.4001C19.7235 36.4672 19.8611 36.5023 20.0008 36.5023C20.1406 36.5023 20.2782 36.4672 20.4008 36.4001L27.338 32.3316C29.5029 31.13 31.312 29.378 32.5823 27.2528C33.8527 25.1275 34.5391 22.7045 34.5723 20.2287V9.143C34.573 8.9814 34.524 8.82348 34.4321 8.69062C34.3401 8.55775 34.2095 8.45635 34.058 8.40014L20.2751 3.33729C20.1873 3.30544 20.0943 3.28994 20.0008 3.29157Z" fill="#0C0E11"/>
<path d="M18.7433 25.543C18.4061 25.5408 18.0796 25.4239 17.8176 25.2116L12.9376 21.0973C12.6466 20.8533 12.4645 20.5037 12.4313 20.1254C12.3981 19.7471 12.5165 19.3711 12.7605 19.0801C13.0045 18.7891 13.3541 18.607 13.7324 18.5738C14.1106 18.5406 14.4866 18.659 14.7776 18.903L18.6062 22.1258L25.1433 14.9258C25.3979 14.644 25.7541 14.4748 26.1334 14.4555C26.5128 14.4362 26.8843 14.5684 27.1662 14.823C27.4481 15.0776 27.6173 15.4337 27.6366 15.8131C27.6558 16.1925 27.5236 16.564 27.269 16.8458L19.8633 25.0744C19.7215 25.2287 19.548 25.3505 19.3547 25.4314C19.1613 25.5123 18.9528 25.5504 18.7433 25.543Z" fill="#0C0E11"/>
</svg>
