<svg width="40" height="40" viewBox="0 0 40 40" fill="none" xmlns="http://www.w3.org/2000/svg">
<g clip-path="url(#clip0_3354_61)">
<path d="M27.135 21.6149C27.3697 21.8496 27.5016 22.1679 27.5016 22.4999C27.5016 22.8318 27.3697 23.1502 27.135 23.3849C26.9003 23.6196 26.5819 23.7515 26.25 23.7515C25.9181 23.7515 25.5997 23.6196 25.365 23.3849L21.25 19.2674V26.2499C21.25 26.5814 21.1183 26.8993 20.8839 27.1338C20.6495 27.3682 20.3315 27.4999 20 27.4999C19.6685 27.4999 19.3505 27.3682 19.1161 27.1338C18.8817 26.8993 18.75 26.5814 18.75 26.2499V19.2674L14.635 23.3849C14.4003 23.6196 14.0819 23.7515 13.75 23.7515C13.4181 23.7515 13.0997 23.6196 12.865 23.3849C12.6303 23.1502 12.4984 22.8318 12.4984 22.4999C12.4984 22.1679 12.6303 21.8496 12.865 21.6149L19.115 15.3649C19.2322 15.2489 19.3706 15.1564 19.5225 15.0924C19.8286 14.9673 20.1714 14.9673 20.4775 15.0924C20.6294 15.1564 20.7678 15.2489 20.885 15.3649L27.135 21.6149ZM40 24.9999C40 26.989 39.2098 28.8967 37.8033 30.3032C36.3968 31.7097 34.4891 32.4999 32.5 32.4999H6.25C4.5924 32.4999 3.00269 31.8414 1.83058 30.6693C0.65848 29.4972 0 27.9075 0 26.2499C0 24.5923 0.65848 23.0026 1.83058 21.8305C3.00269 20.6584 4.5924 19.9999 6.25 19.9999C6.67001 20.0004 7.08887 20.044 7.5 20.1299V19.9999C7.48992 16.9031 8.63249 13.9134 10.7053 11.6126C12.7781 9.31179 15.6329 7.86461 18.714 7.5527C21.795 7.24079 24.8819 8.08647 27.3738 9.92514C29.8657 11.7638 31.5842 14.4639 32.195 17.4999C33.2053 17.4588 34.2134 17.6224 35.1589 17.9808C36.1043 18.3393 36.9675 18.8852 37.6966 19.5858C38.4257 20.2863 39.0055 21.1271 39.4014 22.0575C39.7972 22.9879 40.0008 23.9888 40 24.9999ZM37.5 24.9999C37.5061 24.2491 37.3417 23.5066 37.0191 22.8286C36.6966 22.1506 36.2243 21.5546 35.6379 21.0857C35.0515 20.6167 34.3662 20.2871 33.6339 20.1215C32.9015 19.9559 32.1411 19.9588 31.41 20.1299C31.2372 20.1682 31.0583 20.1694 30.885 20.1334C30.7117 20.0974 30.548 20.0251 30.4048 19.9211C30.2616 19.8171 30.1421 19.6839 30.0542 19.5302C29.9663 19.3766 29.912 19.2061 29.895 19.0299C29.6517 16.4771 28.4342 14.1163 26.4954 12.4379C24.5566 10.7595 22.0457 9.89272 19.4844 10.0176C16.9232 10.1425 14.5085 11.2494 12.7422 13.1084C10.9759 14.9675 9.9938 17.4356 10 19.9999V21.9424C10.0001 22.1623 9.9421 22.3784 9.83195 22.5688C9.7218 22.7591 9.56337 22.9171 9.37265 23.0266C9.18194 23.1362 8.9657 23.1935 8.74576 23.1927C8.52582 23.192 8.30996 23.1332 8.12 23.0224C7.55478 22.6837 6.9089 22.5033 6.25 22.4999C5.25544 22.4999 4.30161 22.895 3.59835 23.5982C2.89509 24.3015 2.5 25.2553 2.5 26.2499C2.5 27.2444 2.89509 28.1983 3.59835 28.9015C4.30161 29.6048 5.25544 29.9999 6.25 29.9999H32.5C33.8261 29.9999 35.0979 29.4731 36.0355 28.5354C36.9732 27.5977 37.5 26.326 37.5 24.9999Z" fill="#0C0E11"/>
</g>
<defs>
<clipPath id="clip0_3354_61">
<rect width="40" height="40" fill="white"/>
</clipPath>
</defs>
</svg>
