<svg width="36" height="15" viewBox="0 0 36 15" fill="none" xmlns="http://www.w3.org/2000/svg">
<path d="M-0.000781178 14.1599V0.159911H2.91922L6.21922 8.89991L9.51922 0.159911H12.4392V14.1599H9.83922V5.51991L7.15922 12.8799H5.27922L2.59922 5.51991V14.1599H-0.000781178ZM20.5722 8.67991H17.8922V14.1599H15.2922V0.159911H20.5722C23.5322 0.159911 24.9522 1.97991 24.9522 4.41991C24.9522 6.85991 23.5322 8.67991 20.5722 8.67991ZM20.4722 6.27991C21.6122 6.27991 22.3122 5.69991 22.3122 4.41991C22.3122 3.13991 21.6122 2.55991 20.4722 2.55991H17.8922V6.27991H20.4722ZM34.7281 2.53991L32.6281 3.87991C32.0881 2.83991 31.5081 2.39991 30.6881 2.39991C29.9281 2.39991 29.3481 2.93991 29.3481 3.67991C29.3481 6.11991 35.3281 5.79991 35.3281 9.95991C35.3281 12.6999 33.5281 14.3199 30.8481 14.3199C28.3081 14.3199 26.4681 12.5399 26.0281 10.3999L28.1281 9.07991C28.5481 10.5799 29.3881 11.9199 30.9081 11.9199C31.9881 11.9199 32.7281 11.3799 32.7281 10.0999C32.7281 7.77991 26.8681 8.23991 26.8681 3.79991C26.8681 1.67991 28.4881 -8.79765e-05 30.6881 -8.79765e-05C32.5481 -8.79765e-05 33.9681 0.919911 34.7281 2.53991Z" fill="#0C0E11"/>
</svg>
