<svg width="40" height="40" viewBox="0 0 40 40" fill="none" xmlns="http://www.w3.org/2000/svg">
<g clip-path="url(#clip0_3362_516)">
<path d="M39.0868 5.89214C38.9145 5.5212 38.5718 5.25459 38.1675 5.18183C38.0947 5.16869 38.0207 5.16279 37.9472 5.16279C37.6117 5.16279 37.2979 5.29314 37.0607 5.52903L33.6599 8.93194L31.2557 8.74785L31.0703 6.34295L34.4712 2.94149C34.7615 2.65247 34.8919 2.23901 34.8191 1.83217C34.7458 1.42786 34.479 1.08583 34.1069 0.916084C32.7943 0.317208 31.3363 0 29.8921 0C27.1989 0 24.6663 1.04848 22.7615 2.95258C19.9943 5.72107 19.0828 9.69201 20.3533 13.3686L1.10955 32.6112C-0.351676 34.0724 -0.366736 36.4379 1.07751 37.8829L2.11744 38.9248C2.81137 39.6174 3.73721 40.0001 4.72534 40.0001C5.73057 40.0001 6.67738 39.607 7.39034 38.8941L26.6348 19.6482C27.6912 20.0106 28.7953 20.1934 29.921 20.1934C32.6135 20.1934 35.1468 19.1437 37.0516 17.2395C40.0153 14.275 40.8338 9.71502 39.0868 5.89214ZM29.919 17.6882C28.8483 17.6869 27.811 17.468 26.8359 17.0381C26.6753 16.9667 26.5044 16.9294 26.3295 16.9294C25.9953 16.9294 25.6807 17.061 25.4442 17.2983L14.6572 28.0833H14.6494L5.61455 37.1174C5.37337 37.3592 5.05495 37.4922 4.72016 37.4922C4.40367 37.4922 4.10815 37.3716 3.88997 37.1528L2.84871 36.1123C2.38344 35.6464 2.39923 34.8719 2.88546 34.387L11.9184 25.3529V25.3464L22.7073 14.5575C23.0735 14.1879 23.1745 13.6414 22.9649 13.1677C21.6852 10.2688 22.301 6.95448 24.5349 4.72198C25.9653 3.29087 27.8683 2.50261 29.8937 2.50261C30.3471 2.50261 30.8006 2.54393 31.2474 2.62452L28.8937 4.97822C28.6342 5.237 28.5006 5.59481 28.5287 5.96117L28.8406 10.0095C28.8884 10.6274 29.3727 11.1129 29.9939 11.1628L34.0434 11.4741C34.0742 11.4767 34.1057 11.478 34.1371 11.478C34.4673 11.478 34.7905 11.3437 35.025 11.1091L37.3774 8.75677C37.8105 11.1924 37.0367 13.7126 35.2819 15.468C33.848 16.9 31.9431 17.6882 29.919 17.6882Z" fill="#0C0E11"/>
</g>
<defs>
<clipPath id="clip0_3362_516">
<rect width="40" height="40" fill="white"/>
</clipPath>
</defs>
</svg>
