<svg width="40" height="40" viewBox="0 0 40 40" fill="none" xmlns="http://www.w3.org/2000/svg">
<g clip-path="url(#clip0_3354_96)">
<path d="M38.6666 1.8667H1.33336C0.596953 1.8667 0 2.46373 0 3.20006V36.8001C0 37.5364 0.596953 38.1334 1.33336 38.1334H38.6667C39.403 38.1334 40.0001 37.5365 40.0001 36.8001V3.20006C40 2.46373 39.403 1.8667 38.6666 1.8667ZM10.8445 35.4667H2.66664V11.6445H10.8445V35.4667ZM37.3334 35.4667H13.5111V11.6445H37.3333V35.4667H37.3334ZM37.3334 8.97787H12.1786H2.66664V4.53342H37.3333V8.97787H37.3334Z" fill="#0C0E11"/>
<path d="M5.06664 7.64256C5.55757 7.64256 5.95555 7.24458 5.95555 6.75365C5.95555 6.26272 5.55757 5.86475 5.06664 5.86475C4.57571 5.86475 4.17773 6.26272 4.17773 6.75365C4.17773 7.24458 4.57571 7.64256 5.06664 7.64256Z" fill="#0C0E11"/>
<path d="M8.62328 7.64256C9.11421 7.64256 9.51219 7.24458 9.51219 6.75365C9.51219 6.26272 9.11421 5.86475 8.62328 5.86475C8.13235 5.86475 7.73438 6.26272 7.73438 6.75365C7.73438 7.24458 8.13235 7.64256 8.62328 7.64256Z" fill="#0C0E11"/>
<path d="M12.178 7.64256C12.6689 7.64256 13.0669 7.24458 13.0669 6.75365C13.0669 6.26272 12.6689 5.86475 12.178 5.86475C11.687 5.86475 11.2891 6.26272 11.2891 6.75365C11.2891 7.24458 11.687 7.64256 12.178 7.64256Z" fill="#0C0E11"/>
<path d="M8.32603 15.7334H5.22189C4.53744 15.7334 3.93697 16.2348 3.86189 16.9151C3.77322 17.7194 4.40048 18.4001 5.18689 18.4001H8.29095C8.97541 18.4001 9.57587 17.8987 9.65095 17.2184C9.7397 16.4141 9.11228 15.7334 8.32603 15.7334Z" fill="#0C0E11"/>
<path d="M8.32603 22.2222H5.22189C4.53744 22.2222 3.93697 22.7236 3.86189 23.4039C3.77322 24.2082 4.40048 24.8889 5.18689 24.8889H8.29095C8.97541 24.8889 9.57587 24.3875 9.65095 23.7072C9.7397 22.9029 9.11228 22.2222 8.32603 22.2222Z" fill="#0C0E11"/>
<path d="M8.32603 28.7112H5.22189C4.53744 28.7112 3.93697 29.2126 3.86189 29.8929C3.77322 30.6972 4.40048 31.3779 5.18689 31.3779H8.29095C8.97541 31.3779 9.57587 30.8765 9.65095 30.1962C9.7397 29.3919 9.11228 28.7112 8.32603 28.7112Z" fill="#0C0E11"/>
<path d="M28.7389 23.5234C31.9931 20.5129 29.8593 15.0469 25.4223 15.0469C20.9834 15.0469 18.8524 20.5135 22.1057 23.5234C21.1396 24.4171 20.5334 25.6945 20.5334 27.1111V30.6666C20.5334 31.403 21.1304 32 21.8668 32H28.9779C29.7142 32 30.3112 31.403 30.3112 30.6666V27.1111C30.3112 25.6944 29.705 24.4172 28.7389 23.5234ZM25.4227 17.745C28.3594 17.745 28.3594 22.1895 25.4227 22.1895C22.486 22.1895 22.4859 17.745 25.4227 17.745ZM27.6446 29.3334H23.2001V27.157C23.2001 26.0232 24.1213 24.9802 25.2519 24.8953C26.5539 24.7977 27.6446 25.8295 27.6446 27.1112V29.3334Z" fill="#0C0E11"/>
</g>
<defs>
<clipPath id="clip0_3354_96">
<rect width="40" height="40" fill="white"/>
</clipPath>
</defs>
</svg>
