<svg width="42" height="42" viewBox="0 0 42 42" fill="none" xmlns="http://www.w3.org/2000/svg">
<path d="M27.5625 14.4375H35.4375C36.8813 14.4375 38.0625 15.6187 38.0625 17.0625V35.4375C38.0625 36.8813 36.8813 38.0625 35.4375 38.0625H6.5625C5.11875 38.0625 3.9375 36.8813 3.9375 35.4375V17.0625C3.9375 15.6187 5.11875 14.4375 6.5625 14.4375H14.4375" stroke="#0C0E11" stroke-width="3" stroke-miterlimit="10" stroke-linecap="round" stroke-linejoin="round"/>
<path d="M10.5 21L21 30.1875L31.5 21" stroke="#0C0E11" stroke-width="3" stroke-miterlimit="10" stroke-linecap="round" stroke-linejoin="round"/>
<path d="M16.5375 26.25L10.5 31.5" stroke="#0C0E11" stroke-width="3" stroke-miterlimit="10" stroke-linecap="round" stroke-linejoin="round"/>
<path d="M31.5004 31.5L25.4629 26.25" stroke="#0C0E11" stroke-width="3" stroke-miterlimit="10" stroke-linecap="round" stroke-linejoin="round"/>
<path d="M16.4062 7.35C14.5688 7.35 13.125 8.925 13.125 10.7625C13.125 12.6 14.5688 14.175 16.4062 14.175C19.2938 14.175 22.1812 14.8312 24.8062 16.1437L27.4312 17.4562V9.84375V3.9375L24.8062 5.25C22.3125 6.5625 19.425 7.35 16.4062 7.35Z" stroke="#0C0E11" stroke-width="3" stroke-miterlimit="10" stroke-linecap="round" stroke-linejoin="round"/>
<path d="M14.4375 13.3876L17.5875 19.6876H20.8687V7.3501" stroke="#0C0E11" stroke-width="3" stroke-miterlimit="10" stroke-linecap="round" stroke-linejoin="round"/>
</svg>
