<svg width="42" height="42" viewBox="0 0 42 42" fill="none" xmlns="http://www.w3.org/2000/svg">
<path fill-rule="evenodd" clip-rule="evenodd" d="M27.9579 24.2515V27.5256C27.9579 28.2032 28.508 28.7534 29.1856 28.7534C29.8633 28.7534 30.4134 28.2032 30.4134 27.5256V24.2515C30.4134 23.5738 29.8633 23.0237 29.1856 23.0237C28.508 23.0237 27.9579 23.5738 27.9579 24.2515ZM27.9579 11.1551V14.4292C27.9579 15.1069 28.508 15.657 29.1856 15.657C29.8633 15.657 30.4134 15.1069 30.4134 14.4292V11.1551C30.4134 10.4775 29.8633 9.92734 29.1856 9.92734C28.508 9.92734 27.9579 10.4775 27.9579 11.1551ZM28.0036 5.73229V4.60693C28.0036 3.92884 27.4539 3.37915 26.7758 3.37915H15.2708C14.5927 3.37915 14.043 3.92884 14.043 4.60693V5.73229C14.043 6.90581 14.4618 8.02791 15.1908 8.85773C15.973 9.74822 17.0407 10.2342 18.147 10.2342H23.8996C25.0059 10.2342 26.0736 9.74822 26.8558 8.85773C27.5848 8.02791 28.0036 6.90581 28.0036 5.73229ZM25.5459 5.83472C25.5247 6.36099 25.3396 6.86311 25.011 7.2371C24.7144 7.57467 24.3191 7.77858 23.8997 7.77862C23.8996 7.77862 18.147 7.77862 18.147 7.77862C17.7275 7.77858 17.3322 7.57467 17.0356 7.2371C16.707 6.86311 16.5219 6.36099 16.5007 5.83472H25.5459Z" fill="#0C0E11"/>
<path fill-rule="evenodd" clip-rule="evenodd" d="M3.99599 19.3403C3.12649 20.1614 2.58398 21.3245 2.58398 22.6144C2.58398 25.0512 2.58398 28.3629 2.58398 30.7997C2.58398 32.8603 3.96849 34.5976 5.8581 35.1321V37.3478C5.8581 38.0255 6.40822 38.5756 7.08588 38.5756C7.7635 38.5756 8.31366 38.0255 8.31366 37.3478V35.3015H33.6878V37.3478C33.6878 38.0255 34.238 38.5756 34.9156 38.5756C35.5933 38.5756 36.1434 38.0255 36.1434 37.3478V35.1321C38.033 34.5976 39.4175 32.8603 39.4175 30.7997V22.6144C39.4175 21.3245 38.875 20.1614 38.0055 19.3403C38.875 18.5193 39.4175 17.3562 39.4175 16.0663V7.88105C39.4175 5.39472 37.4019 3.37919 34.9157 3.37915H7.08584C4.59955 3.37919 2.58398 5.39472 2.58398 7.88105C2.58398 10.3178 2.58398 13.6295 2.58398 16.0663C2.58398 17.3562 3.12649 18.5193 3.99599 19.3403ZM36.9619 22.6144V30.7997C36.9619 31.9298 36.0458 32.8459 34.9157 32.8459C34.9156 32.8459 7.08588 32.8459 7.08588 32.8459C5.95569 32.8459 5.03955 31.9298 5.03955 30.7997C5.03955 28.3629 5.03955 25.0512 5.03955 22.6144C5.03955 21.4843 5.95569 20.5682 7.0858 20.5681C7.08592 20.5681 34.9156 20.5681 34.9156 20.5681C36.0458 20.5682 36.9619 21.4843 36.9619 22.6144ZM11.1785 21.3867C8.69383 21.3867 6.67661 23.4039 6.67661 25.8885C6.67661 28.3732 8.69383 30.3904 11.1785 30.3904C13.6631 30.3904 15.6804 28.3732 15.6804 25.8885C15.6804 23.4039 13.6631 21.3867 11.1785 21.3867ZM32.8693 24.2515V27.5256C32.8693 28.2032 33.4194 28.7534 34.0971 28.7534C34.7747 28.7534 35.3249 28.2032 35.3249 27.5256V24.2515C35.3249 23.5738 34.7747 23.0237 34.0971 23.0237C33.4194 23.0237 32.8693 23.5738 32.8693 24.2515ZM11.1785 23.8422C12.3079 23.8422 13.2248 24.7591 13.2248 25.8885C13.2248 27.0179 12.3079 27.9348 11.1785 27.9348C10.0491 27.9348 9.13217 27.0179 9.13217 25.8885C9.13217 24.7591 10.0491 23.8422 11.1785 23.8422ZM36.9619 7.88105V16.0663C36.9619 17.1964 36.0458 18.1125 34.9157 18.1125C34.9156 18.1125 7.08588 18.1125 7.08588 18.1125C5.95569 18.1125 5.03955 17.1964 5.03955 16.0663C5.03955 13.6295 5.03955 10.3178 5.03955 7.88105C5.03955 6.75094 5.95569 5.83476 7.0858 5.83472C7.08592 5.83472 34.9156 5.83472 34.9156 5.83472C36.0458 5.83476 36.9619 6.75094 36.9619 7.88105ZM11.1785 8.29028C8.69383 8.29028 6.67661 10.3075 6.67661 12.7922C6.67661 15.2768 8.69383 17.294 11.1785 17.294C13.6631 17.294 15.6804 15.2768 15.6804 12.7922C15.6804 10.3075 13.6631 8.29028 11.1785 8.29028ZM32.8693 11.1551V14.4292C32.8693 15.1069 33.4194 15.657 34.0971 15.657C34.7747 15.657 35.3249 15.1069 35.3249 14.4292V11.1551C35.3249 10.4775 34.7747 9.92734 34.0971 9.92734C33.4194 9.92734 32.8693 10.4775 32.8693 11.1551ZM11.1785 10.7458C12.3079 10.7458 13.2248 11.6628 13.2248 12.7922C13.2248 13.9215 12.3079 14.8385 11.1785 14.8385C10.0491 14.8385 9.13217 13.9215 9.13217 12.7922C9.13217 11.6628 10.0491 10.7458 11.1785 10.7458Z" fill="black"/>
</svg>
