<svg width="37" height="15" viewBox="0 0 37 15" fill="none" xmlns="http://www.w3.org/2000/svg">
<path d="M-0.000781178 14.1602V0.160155H2.91922L6.21922 8.90016L9.51922 0.160155H12.4392V14.1602H9.83922V5.52016L7.15922 12.8802H5.27922L2.59922 5.52016V14.1602H-0.000781178ZM23.5367 2.54016L21.4367 3.88016C20.8967 2.84016 20.3167 2.40016 19.4967 2.40016C18.7367 2.40016 18.1567 2.94016 18.1567 3.68016C18.1567 6.12016 24.1367 5.80016 24.1367 9.96016C24.1367 12.7002 22.3367 14.3202 19.6567 14.3202C17.1167 14.3202 15.2767 12.5402 14.8367 10.4002L16.9367 9.08016C17.3567 10.5802 18.1967 11.9202 19.7167 11.9202C20.7967 11.9202 21.5367 11.3802 21.5367 10.1002C21.5367 7.78016 15.6767 8.24016 15.6767 3.80016C15.6767 1.68016 17.2967 0.000156164 19.4967 0.000156164C21.3567 0.000156164 22.7767 0.920155 23.5367 2.54016ZM31.7245 8.68016H29.0445V14.1602H26.4445V0.160155H31.7245C34.6845 0.160155 36.1045 1.98016 36.1045 4.42016C36.1045 6.86016 34.6845 8.68016 31.7245 8.68016ZM31.6245 6.28016C32.7645 6.28016 33.4645 5.70016 33.4645 4.42016C33.4645 3.14016 32.7645 2.56016 31.6245 2.56016H29.0445V6.28016H31.6245Z" fill="#0C0E11"/>
</svg>
