<svg width="40" height="40" viewBox="0 0 40 40" fill="none" xmlns="http://www.w3.org/2000/svg">
<path d="M15 3.33317C15 2.4127 15.7462 1.6665 16.6667 1.6665H23.3333C24.2538 1.6665 25 2.4127 25 3.33317V4.99984C25 5.9203 24.2538 6.6665 23.3333 6.6665H16.6667C15.7462 6.6665 15 5.9203 15 4.99984V3.33317Z" fill="#0C0E11"/>
<path d="M27.5006 2.9165H12.5007C10.8898 2.9165 9.58398 4.22234 9.58398 5.83317V34.1665C9.58398 35.7773 10.8898 37.0832 12.5007 37.0832H27.5006C29.1115 37.0832 30.4173 35.7773 30.4173 34.1665V5.83317C30.4173 4.22234 29.1115 2.9165 27.5006 2.9165Z" stroke="#0C0E11" stroke-width="3"/>
<path d="M15 32.5H25" stroke="#0C0E11" stroke-width="3" stroke-linecap="round"/>
</svg>
