<svg width="40" height="40" viewBox="0 0 40 40" fill="none" xmlns="http://www.w3.org/2000/svg">
<path d="M20.0007 36.6666C29.2053 36.6666 36.6673 29.2046 36.6673 19.9999C36.6673 10.7952 29.2053 3.33325 20.0007 3.33325C10.7959 3.33325 3.33398 10.7952 3.33398 19.9999C3.33398 22.6661 3.96002 25.1859 5.07308 27.4208C5.36888 28.0146 5.46733 28.6934 5.29585 29.3343L4.30317 33.0444C3.87223 34.6549 5.34567 36.1283 6.95623 35.6974L10.6663 34.7048C11.3072 34.5333 11.986 34.6317 12.5799 34.9274C14.8146 36.0406 17.3345 36.6666 20.0007 36.6666Z" stroke="#0C0E11" stroke-width="3"/>
<path d="M13.334 17.5H26.6673" stroke="#0C0E11" stroke-width="3" stroke-linecap="round"/>
<path d="M13.334 23.3333H22.5007" stroke="#0C0E11" stroke-width="3" stroke-linecap="round"/>
</svg>
