<svg width="60" height="60" viewBox="0 0 60 60" fill="none" xmlns="http://www.w3.org/2000/svg">
<path d="M23.6064 7.19531L26.2276 9.30211L25.3455 12.5468C25.2113 13.0395 25.3917 13.5517 25.8046 13.8518C26.0196 14.008 26.2696 14.0865 26.5202 14.0865C26.7513 14.0865 26.9827 14.0198 27.1877 13.8857L30.0012 12.0438L32.815 13.8857C33.2421 14.1653 33.785 14.152 34.1979 13.8519C34.6108 13.5519 34.7912 13.0397 34.6573 12.547L33.7752 9.30199L36.3963 7.19531C36.7943 6.87551 36.9494 6.3552 36.7916 5.86969C36.6337 5.38406 36.2023 5.0543 35.6925 5.02957L32.3337 4.86586L31.1401 1.72207C31.14 1.72195 31.14 1.72195 31.14 1.72184C30.9589 1.24523 30.5118 0.937383 30.001 0.9375C29.4902 0.937617 29.0434 1.24559 28.8625 1.72207L27.6689 4.86586L24.3102 5.02957C23.8002 5.05441 23.3689 5.38418 23.2111 5.86969C23.0532 6.3552 23.2085 6.87563 23.6064 7.19531ZM28.1899 6.71754C28.674 6.69398 29.0977 6.3859 29.2693 5.93332L30.0012 4.00523L30.7332 5.93285C30.9049 6.38602 31.3286 6.69398 31.8127 6.71754L33.8728 6.81797L32.265 8.1102C31.8873 8.41383 31.7255 8.91211 31.8528 9.37887L32.3939 11.3691L30.6683 10.2395C30.4657 10.1068 30.2335 10.0405 30.0012 10.0405C29.7691 10.0405 29.5368 10.1068 29.3341 10.2394L27.6085 11.3689L28.1497 9.37852C28.2766 8.91105 28.1146 8.41301 27.7372 8.10996L26.1296 6.81785L28.1899 6.71754ZM4.98125 25.3328L8.11625 24.1161L10.4855 26.5028C10.7206 26.7396 11.03 26.8642 11.3464 26.8642C11.5141 26.8642 11.6837 26.8291 11.8452 26.7572C12.3114 26.5496 12.5945 26.0861 12.5659 25.5764L12.3777 22.2189L15.3798 20.703C15.8354 20.4729 16.0951 19.9962 16.0418 19.4886C15.9884 18.981 15.635 18.5687 15.1413 18.4383L11.8899 17.5798L11.3761 14.2567C11.2981 13.7521 10.925 13.3575 10.4257 13.2512C9.92645 13.145 9.42488 13.3539 9.14855 13.7829L7.32746 16.6099L4.00801 16.0718C3.50645 15.9901 3.01461 16.2231 2.75914 16.6656C2.50367 17.108 2.54703 17.6491 2.8693 18.0439L4.99508 20.6495L3.45758 23.6402C3.22414 24.0942 3.29398 24.6327 3.63559 25.0121C3.97695 25.3916 4.505 25.5175 4.98125 25.3328ZM7.4518 18.5297C7.92969 18.6073 8.40816 18.3942 8.67066 17.987L9.78746 16.2533L10.1027 18.2921C10.1771 18.7705 10.5275 19.1593 10.9954 19.283L12.9895 19.8095L11.1484 20.7391C10.7163 20.9572 10.4545 21.4105 10.4813 21.8945L10.5968 23.9537L9.14352 22.4897C8.91055 22.2552 8.59789 22.13 8.27926 22.13C8.13125 22.13 7.98195 22.157 7.83875 22.2127L5.91605 22.9588L6.85895 21.1249C7.08078 20.694 7.02605 20.173 6.71973 19.7977L5.41602 18.1996L7.4518 18.5297ZM57.2434 16.6656C56.988 16.2233 56.4982 15.9903 55.9948 16.0719L52.6753 16.6102L50.8541 13.7832C50.5779 13.3541 50.0761 13.1452 49.5772 13.2514C49.0777 13.3575 48.7046 13.752 48.6264 14.2567L48.1126 17.58L44.8612 18.4385C44.3676 18.5688 44.0142 18.981 43.9609 19.4887C43.9074 19.9965 44.1675 20.4732 44.6231 20.7033L47.6248 22.219L47.4366 25.5766C47.4082 26.0864 47.6911 26.5499 48.1573 26.7574C48.3189 26.8293 48.4885 26.8643 48.6562 26.8643C48.9726 26.8643 49.2821 26.7396 49.5172 26.5028L51.8862 24.1162L55.0211 25.3328C55.4969 25.5175 56.0251 25.3918 56.3669 25.0125C56.7085 24.6332 56.7786 24.0947 56.5452 23.6405L55.0075 20.6497L57.1334 18.0441C57.4556 17.649 57.4988 17.108 57.2434 16.6656ZM53.1433 21.1246L54.0863 22.9587L52.1632 22.2123C51.7118 22.0376 51.2 22.1463 50.8585 22.4899L49.4056 23.9536L49.5211 21.8937C49.5479 21.4104 49.286 20.9571 48.854 20.7389L47.013 19.8093L49.0068 19.2827C49.4753 19.1591 49.8259 18.7699 49.8998 18.2913L50.2149 16.2531L51.3316 17.9865C51.5939 18.3941 52.0727 18.607 52.5506 18.5296L54.5865 18.1995L53.2828 19.7974C52.9768 20.1728 52.922 20.6934 53.1433 21.1246ZM16.1656 45.4709C16.3435 45.6687 16.597 45.7816 16.8629 45.7816L43.1397 45.7815C43.4057 45.7815 43.6592 45.6686 43.837 45.4706C44.0149 45.2728 44.1002 45.0088 44.0718 44.7442C43.7025 41.2928 42.0752 38.1043 39.4898 35.7663C37.9439 34.3683 36.1283 33.343 34.1729 32.7407C36.247 31.3779 37.6202 29.0319 37.6202 26.37C37.6202 22.1689 34.2024 18.7512 30.0012 18.7512C25.8001 18.7512 22.3823 22.1689 22.3823 26.37C22.3823 29.0318 23.7555 31.3778 25.8296 32.7407C23.8741 33.3431 22.0585 34.3683 20.5125 35.7664C17.9271 38.1045 16.2999 41.293 15.9305 44.7445C15.9023 45.0089 15.9877 45.273 16.1656 45.4709ZM24.2574 26.3701C24.2574 23.203 26.8341 20.6263 30.0014 20.6263C33.1686 20.6263 35.7453 23.203 35.7453 26.3701C35.7453 29.5368 33.1694 32.1131 30.003 32.1139C30.0025 32.1139 30.002 32.1139 30.0015 32.1139C30.001 32.1139 30.0004 32.1139 30 32.1139C26.8334 32.1131 24.2574 29.5368 24.2574 26.3701ZM30.0002 33.9889H30.0014H30.0025C35.939 33.9895 40.9466 38.1846 42.0521 43.9066L17.9503 43.9068C19.0559 38.1846 24.0635 33.9895 30.0002 33.9889ZM53.7993 34.884C53.9261 33.8801 53.9911 32.8617 53.9911 31.8462C53.9911 31.3284 53.5713 30.9087 53.0536 30.9087C52.5358 30.9087 52.1161 31.3284 52.1161 31.8462C52.1161 32.7587 52.0597 33.6735 51.9488 34.5758C49.7729 34.7099 48.0434 36.5218 48.0434 38.7308C48.0434 40.0614 48.6716 41.2473 49.646 42.0101C46.4813 48.1264 40.7128 52.3893 33.9588 53.6061C33.4136 51.941 31.8461 50.7346 30.0012 50.7346C28.1565 50.7346 26.5889 51.941 26.0438 53.606C19.334 52.3965 13.5897 48.1745 10.4129 42.1171C11.4685 41.361 12.1584 40.1252 12.1584 38.7307C12.1584 36.4542 10.3217 34.5996 8.0525 34.5683C7.94223 33.6684 7.88645 32.7562 7.88645 31.8461C7.88645 31.3283 7.46668 30.9086 6.94895 30.9086C6.43121 30.9086 6.01145 31.3283 6.01145 31.8461C6.01145 32.8901 6.08035 33.9367 6.21406 34.9676C4.80641 35.6362 3.83059 37.0714 3.83059 38.7307C3.83059 41.0266 5.69844 42.8946 7.99449 42.8946C8.2257 42.8946 8.45234 42.8748 8.67336 42.8384C10.3508 46.0842 12.773 48.9364 15.7167 51.1214C18.7146 53.3466 22.2133 54.8454 25.8791 55.4823C26.1641 57.5027 27.9036 59.0624 30.0012 59.0624C32.099 59.0624 33.8384 57.5027 34.1233 55.4824C37.8025 54.8433 41.3125 53.3361 44.3178 51.0976C47.2579 48.9077 49.6739 46.0526 51.3459 42.8046C51.624 42.8633 51.912 42.8947 52.2073 42.8947C54.5033 42.8947 56.3711 41.0269 56.3711 38.7308C56.371 36.9986 55.3075 35.5105 53.7993 34.884ZM5.7057 38.7308C5.7057 37.4687 6.7325 36.442 7.99461 36.442C9.25672 36.442 10.2834 37.4688 10.2834 38.7308C10.2834 39.9929 9.2566 41.0197 7.99461 41.0197C6.73238 41.0197 5.7057 39.9929 5.7057 38.7308ZM30.0012 57.1874C28.7391 57.1874 27.7125 56.1606 27.7125 54.8986C27.7125 53.6365 28.7393 52.6097 30.0012 52.6097C31.2632 52.6097 32.29 53.6365 32.29 54.8986C32.29 56.1606 31.2634 57.1874 30.0012 57.1874ZM52.2072 41.0197C50.9451 41.0197 49.9184 39.9929 49.9184 38.7308C49.9184 37.4687 50.9452 36.442 52.2072 36.442C53.4692 36.442 54.496 37.4688 54.496 38.7308C54.496 39.9929 53.4693 41.0197 52.2072 41.0197Z" fill="#0C0E11"/>
</svg>
