<svg width="80" height="80" viewBox="0 0 80 80" fill="none" xmlns="http://www.w3.org/2000/svg">
<path d="M70.272 19.1867H70.2319V18.1158C70.2319 17.8258 70.1167 17.5475 69.9116 17.3423C69.7064 17.1373 69.4283 17.022 69.1381 17.022H62.7936V12.8752H64.0166C64.4652 14.105 65.643 14.9872 67.0261 14.9872C68.7937 14.9872 70.2319 13.5491 70.2319 11.7814C70.2319 10.0138 68.7937 8.57547 67.0261 8.57547C65.643 8.57547 64.465 9.45766 64.0166 10.6877H61.6998C61.0958 10.6877 60.6061 11.1773 60.6061 11.7814V17.0223H56.3625C55.7584 17.0223 55.2688 17.512 55.2688 18.1161C55.2688 24.2456 50.2819 29.2327 44.1522 29.2327C38.0225 29.2327 33.0356 24.2458 33.0356 18.1161C33.0356 17.512 32.5459 17.0223 31.9419 17.0223H27.6981V11.7814C27.6981 11.1773 27.2084 10.6877 26.6044 10.6877H24.2877C23.8391 9.45766 22.6612 8.57547 21.2781 8.57547C19.5105 8.57547 18.0723 10.0136 18.0723 11.7814C18.0723 13.5489 19.5105 14.9872 21.2781 14.9872C22.6612 14.9872 23.8391 14.105 24.2877 12.8752H25.5106V17.0222H19.1661C18.562 17.0222 18.0723 17.5119 18.0723 18.1159V19.2964C15.67 19.7936 13.8587 21.9256 13.8587 24.4731V41.4125C13.7908 41.3597 13.7247 41.3027 13.6617 41.2397C12.8853 40.4633 11.6222 40.4637 10.8459 41.2397L8.91406 43.1716C8.53797 43.5477 8.33094 44.0477 8.33094 44.5795C8.33094 45.1114 8.53812 45.6114 8.91406 45.9873C9.48375 46.557 9.63938 47.343 9.33016 48.0894C9.02094 48.8358 8.35531 49.2814 7.54969 49.2814C6.45188 49.2814 5.55859 50.1747 5.55859 51.2725V54.0045C5.55859 55.1023 6.45172 55.9955 7.54969 55.9955C8.35547 55.9955 9.02109 56.4413 9.33016 57.1877C9.63938 57.9339 9.48375 58.7198 8.91422 59.2894C8.53813 59.6653 8.33094 60.1653 8.33094 60.6973C8.33094 61.2294 8.53812 61.7294 8.91406 62.1053L10.8456 64.0372C11.6219 64.8133 12.885 64.8133 13.6614 64.0372C14.2322 63.4664 15.0181 63.3098 15.7642 63.6189C16.51 63.9278 16.9553 64.5942 16.9553 65.4014C16.9553 66.4992 17.8486 67.3925 18.9464 67.3925H21.6783C22.7761 67.3925 23.6694 66.4992 23.6694 65.4014C23.6694 64.5958 24.115 63.9302 24.8613 63.6209C25.6078 63.3117 26.3936 63.4673 26.9634 64.037C27.7398 64.8131 29.003 64.8133 29.7792 64.0369L30.5339 63.2822H35.4884C35.4217 66.3503 34.693 69.4183 33.8691 71.302H30.5019C28.4916 71.302 26.8561 72.9375 26.8561 74.9477C26.8561 76.958 28.4916 78.5936 30.5019 78.5936H57.8025C59.8128 78.5936 61.4483 76.958 61.4483 74.9477C61.4483 72.9375 59.8128 71.302 57.8025 71.302H54.4245C53.5609 69.3872 52.7845 66.3091 52.6888 63.2822H69.1592C72.0741 63.2822 74.4455 60.9108 74.4455 57.9959V23.3608C74.4455 21.0592 72.5733 19.1867 70.272 19.1867ZM67.0259 10.763C67.5875 10.763 68.0442 11.2198 68.0442 11.7814C68.0442 12.343 67.5875 12.7997 67.0259 12.7997C66.4644 12.7997 66.0077 12.343 66.0077 11.7814C66.0077 11.2198 66.4645 10.763 67.0259 10.763ZM21.2778 12.7995C20.7162 12.7995 20.2595 12.3428 20.2595 11.7813C20.2595 11.2197 20.7162 10.7628 21.2778 10.7628C21.8394 10.7628 22.2961 11.2197 22.2961 11.7813C22.2961 12.3428 21.8394 12.7995 21.2778 12.7995ZM20.2595 19.2097H30.8925C31.4503 26.0361 37.1842 31.42 44.152 31.42C51.1198 31.42 56.8538 26.0362 57.4116 19.2097L68.0444 19.2095V20.6144C68.0444 20.9163 67.7987 21.1619 67.4969 21.1619C64.7698 21.1619 62.4266 22.7292 61.3816 25.2523C60.3364 27.7755 60.885 30.5409 62.8133 32.4691C63.0269 32.6827 63.0269 33.0302 62.8133 33.2437L59.2798 36.7772C59.0661 36.9908 58.7186 36.9906 58.5052 36.7773C56.5769 34.8489 53.8119 34.3003 51.2884 35.3455C48.7653 36.3905 47.1978 38.7337 47.1978 41.4608C47.1978 41.7627 46.9522 42.0083 46.6503 42.0083H41.6534C41.3516 42.0083 41.1059 41.7627 41.1059 41.4608C41.1059 38.7309 39.5392 36.3861 37.017 35.3416C36.1719 34.9916 35.2994 34.8205 34.4402 34.8205C32.7352 34.8205 31.0822 35.4939 29.7987 36.7772C29.5852 36.9906 29.2378 36.9908 29.0242 36.7773L25.4906 33.2436C25.2772 33.0302 25.2772 32.6827 25.4906 32.4692C27.4189 30.5409 27.9675 27.7756 26.9225 25.2525C25.8775 22.7294 23.5341 21.1619 20.807 21.1619C20.5052 21.1619 20.2595 20.9163 20.2595 20.6144V19.2097ZM18.2269 21.5131C18.5998 22.5805 19.6142 23.3495 20.8072 23.3495C22.9892 23.3495 24.353 24.765 24.9017 26.0897C25.4503 27.4144 25.487 29.3795 23.9441 30.9225C22.8778 31.9891 22.8778 33.7242 23.9441 34.7905L27.4777 38.3242C28.5442 39.3906 30.2792 39.3903 31.3455 38.3241C32.8908 36.7786 34.8559 36.8142 36.18 37.3627C37.5039 37.9109 38.9184 39.2755 38.9184 41.4609C38.9184 42.9689 40.1455 44.1959 41.6534 44.1959H46.6503C48.1584 44.1959 49.3853 42.9689 49.3853 41.4609C49.3853 39.2791 50.8008 37.9153 52.1255 37.3666C53.4502 36.8178 55.4153 36.7814 56.9583 38.3244C58.0248 39.3908 59.76 39.3905 60.8263 38.3242L64.3598 34.7908C65.4263 33.7244 65.4263 31.9892 64.3598 30.9225C62.8169 29.3797 62.8534 27.4145 63.4022 26.0897C63.9509 24.765 65.3145 23.3497 67.4966 23.3497C68.7408 23.3497 69.7917 22.5136 70.1219 21.3744H70.2717C71.3669 21.3744 72.2577 22.2655 72.2577 23.3609V52.7555H35.0667V51.2725C35.0667 50.1747 34.1734 49.2814 33.0756 49.2814C32.27 49.2814 31.6044 48.8358 31.2952 48.0894C30.9859 47.343 31.1416 46.557 31.7111 45.9875C32.0872 45.6116 32.2944 45.1116 32.2944 44.5795C32.2944 44.0478 32.0873 43.5477 31.7112 43.1714L29.7794 41.2397C29.003 40.4636 27.7398 40.4636 26.9636 41.2397C26.3937 41.8094 25.6078 41.9652 24.8616 41.6558C24.1152 41.3466 23.6695 40.6809 23.6695 39.8752C23.6695 38.7773 22.7764 37.8842 21.6784 37.8842H18.9466C17.8487 37.8842 16.9555 38.7773 16.9555 39.8752C16.9555 40.5731 16.6206 41.1655 16.0459 41.5127V24.473C16.0459 23.0837 16.9648 21.9053 18.2269 21.5131ZM28.3684 62.3547C27.1784 61.2667 25.5319 60.9761 24.0244 61.6002C22.517 62.2245 21.5586 63.5945 21.4864 65.2052H19.1386C19.0664 63.593 18.1083 62.222 16.6014 61.598C15.0944 60.9737 13.4475 61.2655 12.2566 62.3547L10.5963 60.6942C11.6842 59.5044 11.975 57.8578 11.3508 56.3503C10.7264 54.8431 9.35656 53.8845 7.74578 53.8123V51.4644C9.35656 51.3922 10.7264 50.4337 11.3508 48.9264C11.9752 47.4192 11.6842 45.7727 10.5963 44.5825L12.2566 42.9222C13.4466 44.01 15.093 44.3006 16.6005 43.6767C18.1077 43.0523 19.0661 41.6823 19.1384 40.0717H21.4864C21.5586 41.6825 22.5172 43.0523 24.0244 43.6767C25.5319 44.3011 27.1783 44.0103 28.3684 42.9222L30.0287 44.5825C28.9408 45.7725 28.6498 47.4191 29.2742 48.9266C29.8986 50.4338 31.2684 51.3922 32.8792 51.4644V53.8123C31.2684 53.8845 29.8984 54.8431 29.2742 56.3503C28.6498 57.8577 28.9408 59.5042 30.0287 60.6942L28.3684 62.3547ZM59.2608 74.948C59.2608 75.752 58.6066 76.4064 57.8025 76.4064H30.5019C29.6978 76.4064 29.0436 75.752 29.0436 74.948C29.0436 74.1439 29.6978 73.4898 30.5019 73.4898H57.8025C58.6067 73.4897 59.2608 74.1439 59.2608 74.948ZM52.0552 71.3022H36.2272C37.0733 69.0052 37.6177 66.0225 37.6753 63.2823H50.5017C50.5827 65.9923 51.1664 68.9766 52.0552 71.3022ZM69.1592 61.0948H32.2547C32.2808 60.9653 32.2944 60.8323 32.2944 60.6972C32.2944 60.1653 32.0872 59.6653 31.7112 59.2892C31.1416 58.7195 30.9859 57.9337 31.2952 57.1873C31.6044 56.4409 32.2698 55.9953 33.0756 55.9953C33.8342 55.9953 34.4948 55.5686 34.8308 54.9428H72.258V57.9961C72.258 59.7048 70.868 61.0948 69.1592 61.0948ZM47.5506 58.0189C47.5506 58.623 47.0609 59.1127 46.4569 59.1127H41.847C41.243 59.1127 40.7533 58.623 40.7533 58.0189C40.7533 57.4148 41.243 56.9252 41.847 56.9252H46.4569C47.0609 56.9252 47.5506 57.4148 47.5506 58.0189ZM26.6042 7.81781C27.9873 7.81781 29.1652 6.93562 29.6138 5.70578H34.2844V18.1161C34.2844 23.557 38.7111 27.9836 44.152 27.9836C49.593 27.9836 54.0197 23.557 54.0197 18.1161V5.70578H58.6902C59.1388 6.93578 60.3166 7.81797 61.6997 7.81797C63.4673 7.81797 64.9056 6.37984 64.9056 4.61203C64.9056 2.84422 63.4673 1.40625 61.6995 1.40625C60.3164 1.40625 59.1384 2.28844 58.69 3.51844H52.9258C52.3217 3.51844 51.832 4.00812 51.832 4.61219V17.0225H45.2456V14.7908C46.4755 14.3422 47.3577 13.1644 47.3577 11.7814C47.3577 10.0138 45.9195 8.57547 44.1519 8.57547C42.3842 8.57547 40.9459 10.0136 40.9459 11.7814C40.9459 13.1645 41.8281 14.3423 43.0581 14.7909V17.0223H36.4717V4.61203C36.4717 4.00797 35.982 3.51828 35.378 3.51828H29.6136C29.1652 2.28844 27.9872 1.40625 26.6042 1.40625C24.8366 1.40625 23.3984 2.84438 23.3984 4.61203C23.3984 6.37969 24.8366 7.81781 26.6042 7.81781ZM61.6995 3.59375C62.2611 3.59375 62.718 4.05062 62.718 4.61219C62.718 5.17375 62.2611 5.63062 61.6995 5.63062C61.138 5.63062 60.6813 5.17375 60.6813 4.61219C60.6813 4.05062 61.1381 3.59375 61.6995 3.59375ZM44.1519 10.763C44.7134 10.763 45.1702 11.2198 45.1702 11.7814C45.1702 12.343 44.7134 12.7997 44.1519 12.7997C43.5903 12.7997 43.1334 12.343 43.1334 11.7814C43.1334 11.2198 43.5905 10.763 44.1519 10.763ZM51.7545 19.2098C51.2222 22.9286 48.0156 25.7961 44.152 25.7961C40.2884 25.7961 37.0819 22.9284 36.5495 19.2098H51.7545ZM26.6042 3.59375C27.1658 3.59375 27.6225 4.05047 27.6225 4.61203C27.6225 5.17359 27.1658 5.63031 26.6042 5.63031C26.0427 5.63031 25.5859 5.17359 25.5859 4.61203C25.5859 4.05047 26.0427 3.59375 26.6042 3.59375ZM20.3125 44.8691C16.0284 44.8691 12.543 48.3544 12.543 52.6384C12.543 56.9225 16.0283 60.408 20.3125 60.408C24.5966 60.408 28.0819 56.9225 28.0819 52.6384C28.0819 48.3544 24.5966 44.8691 20.3125 44.8691ZM20.3125 58.2203C17.2345 58.2203 14.7305 55.7163 14.7305 52.6383C14.7305 49.5603 17.2345 47.0564 20.3125 47.0564C23.3903 47.0564 25.8944 49.5603 25.8944 52.6383C25.8944 55.7163 23.3903 58.2203 20.3125 58.2203Z" fill="#0C0E11"/>
</svg>
