<svg width="60" height="60" viewBox="0 0 60 60" fill="none" xmlns="http://www.w3.org/2000/svg">
<path d="M45.7015 38.8095L45.7228 38.7486C45.8762 38.1727 46.1157 37.6233 46.4333 37.119C46.8365 36.6982 47.3022 36.3421 47.8139 36.0631C48.846 35.5367 49.7027 34.7215 50.2798 33.7169C50.6822 32.6373 50.771 31.4659 50.5361 30.338C50.4284 29.738 50.4124 29.1252 50.4885 28.5204C50.6701 27.9699 50.9339 27.4501 51.271 26.9786C51.9807 26.0419 52.4072 24.9214 52.5 23.7499C52.4067 22.579 51.9807 21.4591 51.272 20.5224C50.9343 20.0506 50.67 19.5304 50.4882 18.9794C50.4121 18.375 50.4282 17.7626 50.5359 17.163C50.7706 16.0352 50.6822 14.864 50.2808 13.7841C49.7035 12.7804 48.8473 11.9658 47.8161 11.4391C47.3038 11.1595 46.8377 10.8025 46.4342 10.3808C46.1165 9.8764 45.8766 9.32702 45.7226 8.75114C45.4566 7.62376 44.8733 6.59614 44.0417 5.78976C43.0961 5.13982 41.9798 4.78328 40.8325 4.76476C40.2498 4.73899 39.6748 4.62203 39.1284 4.41814C38.6408 4.10956 38.2029 3.72886 37.8295 3.28901C37.1024 2.37604 36.1227 1.69729 35.0125 1.33739C33.8892 1.17847 32.744 1.35294 31.719 1.83914C31.1732 2.07874 30.5931 2.23126 30 2.29113C29.4074 2.23147 28.8278 2.07907 28.2825 1.83951C27.2573 1.35252 26.1114 1.1786 24.9879 1.33951C23.8782 1.6981 22.8987 2.37558 22.1716 3.28739C21.7989 3.7279 21.3608 4.10869 20.8728 4.41651C20.3263 4.6204 19.7513 4.73737 19.1686 4.76314C18.0213 4.78165 16.905 5.1382 15.9594 5.78814C15.1277 6.59506 14.544 7.62295 14.2772 8.75064C14.1238 9.32653 13.8843 9.87594 13.5668 10.3803C13.1635 10.8011 12.6978 11.1572 12.1861 11.4361C11.154 11.9626 10.2973 12.7777 9.72025 13.7824C9.31783 14.862 9.22896 16.0333 9.46388 17.1613C9.57159 17.7612 9.58765 18.3741 9.5115 18.9789C9.32992 19.5293 9.0661 20.0491 8.729 20.5206C8.01924 21.4575 7.59275 22.5782 7.5 23.7499C7.59327 24.9208 8.01935 26.0406 8.728 26.9774C9.06572 27.4492 9.32997 27.9694 9.51175 28.5204C9.58796 29.125 9.57191 29.7376 9.46413 30.3374C9.22939 31.4652 9.31782 32.6364 9.71925 33.7163C10.2965 34.72 11.1527 35.5346 12.1839 36.0613C12.6962 36.3409 13.1623 36.6979 13.5658 37.1196C13.8835 37.624 14.1234 38.1734 14.2774 38.7493L14.3005 38.8158C14.2965 38.8223 14.2898 38.8256 14.2859 38.8323L7.83813 49.9999C7.60246 50.4076 7.48681 50.8737 7.50452 51.3443C7.52223 51.815 7.67257 52.271 7.93821 52.6599C8.20385 53.0488 8.57398 53.3547 9.00593 53.5424C9.43788 53.7301 9.91408 53.7919 10.3796 53.7206L14.7314 53.059L16.3354 57.1618C16.5051 57.6012 16.7965 57.9833 17.1754 58.2632C17.5543 58.5431 18.0051 58.7094 18.475 58.7425C18.5397 58.7474 18.6044 58.7499 18.6691 58.7499C19.1074 58.751 19.5382 58.6358 19.9175 58.4163C20.2968 58.1967 20.6111 57.8805 20.8285 57.4999L27.507 45.9309C27.7725 45.8454 28.031 45.7515 28.2809 45.6603C28.8268 45.4208 29.4069 45.2684 30 45.2086C30.5926 45.2683 31.1722 45.4207 31.7175 45.6603C31.9675 45.7518 32.2289 45.8425 32.4945 45.9283L32.5 45.9448L39.1711 57.4999C39.3885 57.8805 39.7028 58.1967 40.0821 58.4163C40.4615 58.6358 40.8922 58.751 41.3305 58.7499C41.3952 58.7499 41.4599 58.7474 41.5246 58.7425C41.9949 58.7093 42.4459 58.5428 42.8251 58.2627C43.2043 57.9825 43.4958 57.6003 43.6657 57.1605L45.2685 53.059L49.6185 53.7206C50.0842 53.7922 50.5606 53.7307 50.9928 53.5432C51.4251 53.3557 51.7955 53.0498 52.0614 52.6608C52.3272 52.2719 52.4777 51.8157 52.4955 51.3449C52.5133 50.8741 52.3977 50.4078 52.1619 49.9999L45.7015 38.8095ZM18.6634 56.2499L16.6969 51.2169C16.5927 50.9532 16.4023 50.7325 16.1567 50.5909C15.9111 50.4493 15.6248 50.395 15.3444 50.4369L10.0036 51.2499L15.68 41.4178C15.7668 41.5207 15.8597 41.6183 15.9583 41.71C16.9039 42.3599 18.0202 42.7165 19.1675 42.735C19.7502 42.7608 20.3252 42.8777 20.8716 43.0816C21.3592 43.3902 21.7971 43.7709 22.1705 44.2108C22.8261 44.9838 23.6484 45.5983 24.5755 46.0081L18.6634 56.2499ZM32.575 43.3116C31.7584 42.962 30.8869 42.7579 30 42.7086C29.113 42.7573 28.2414 42.9614 27.425 43.3116C26.8424 43.596 26.2007 43.7382 25.5525 43.7266C24.9328 43.443 24.3903 43.0147 23.9705 42.4779C23.4065 41.8201 22.7319 41.2659 21.9771 40.8404C21.1725 40.4974 20.3142 40.2975 19.4409 40.2499C18.7779 40.249 18.1253 40.0855 17.5402 39.7738C17.1044 39.2458 16.7987 38.6227 16.6479 37.9549C16.4158 37.1056 16.0395 36.3025 15.5354 35.5806C14.9637 34.9223 14.2812 34.3691 13.5187 33.9461C12.908 33.6457 12.3798 33.2007 11.98 32.6499C11.8105 31.9868 11.7996 31.293 11.9483 30.6249C12.0965 29.7491 12.0981 28.8547 11.9531 27.9784C11.7202 27.146 11.3466 26.3597 10.8484 25.6534C10.4146 25.0976 10.1233 24.4441 10 23.7499C10.1232 23.0558 10.4144 22.4023 10.8484 21.8468C11.3471 21.1408 11.7208 20.3543 11.9531 19.5218C12.0982 18.6453 12.0965 17.7508 11.9483 16.8749C11.7993 16.2067 11.8106 15.5128 11.9812 14.8499C12.3806 14.2978 12.9091 13.8518 13.5205 13.551C14.2833 13.1286 14.9663 12.5758 15.5384 11.9178C16.0413 11.1961 16.4167 10.3934 16.648 9.54476C16.7995 8.87665 17.1055 8.25336 17.5415 7.72489C18.1266 7.41313 18.7792 7.24964 19.4421 7.24876C20.3156 7.20105 21.1741 7.00108 21.9788 6.65789C22.7341 6.23316 23.4088 5.67888 23.9721 5.02039C24.392 4.48394 24.9346 4.05612 25.5541 3.77289C26.2018 3.76253 26.8429 3.9047 27.4255 4.18789C28.2419 4.53757 29.1132 4.74173 30 4.79114C30.887 4.74246 31.7586 4.53836 32.575 4.18814C33.158 3.90505 33.7994 3.7629 34.4475 3.77314C35.0672 4.05678 35.6097 4.48503 36.0295 5.02189C36.5935 5.67971 37.2681 6.23388 38.0229 6.65939C38.8275 7.00241 39.6858 7.20225 40.5591 7.24989C41.2221 7.25077 41.8747 7.41425 42.4598 7.72601C42.8956 8.25402 43.2013 8.87706 43.3521 9.54489C43.5842 10.3942 43.9605 11.1973 44.4646 11.9191C45.0363 12.5775 45.7188 13.1307 46.4813 13.5536C47.092 13.8541 47.6202 14.299 48.02 14.8499C48.1895 15.513 48.2004 16.2068 48.0518 16.8749C47.9035 17.7507 47.9019 18.645 48.0469 19.5214C48.2798 20.3537 48.6534 21.1401 49.1516 21.8464C49.5854 22.4022 49.8767 23.0557 50 23.7499C49.8768 24.444 49.5856 25.0974 49.1516 25.653C48.6529 26.359 48.2792 27.1455 48.0469 27.978C47.9018 28.8545 47.9035 29.749 48.0518 30.6249C48.2007 31.293 48.1894 31.9869 48.0188 32.6499C47.6194 33.202 47.0909 33.6479 46.4795 33.9488C45.7167 34.3712 45.0337 34.924 44.4616 35.582C43.9587 36.3037 43.5833 37.1063 43.352 37.955C43.2005 38.6232 42.8945 39.2466 42.4585 39.7751C41.8734 40.0869 41.2208 40.2504 40.5579 40.2513C39.6844 40.299 38.8259 40.4989 38.0212 40.8421C37.2659 41.2669 36.5912 41.8211 36.0279 42.4796C35.608 43.0161 35.0654 43.4439 34.4459 43.7271C33.7984 43.7367 33.1576 43.5943 32.575 43.3116ZM44.6562 50.4366C44.3759 50.3951 44.0897 50.4496 43.8442 50.5912C43.5987 50.7328 43.4082 50.9532 43.3038 51.2166L41.3366 56.2499L35.4241 46.0081C36.3509 45.5989 37.1729 44.9849 37.8284 44.2124C38.2011 43.7719 38.6392 43.3911 39.1273 43.0833C39.6737 42.8794 40.2487 42.7624 40.8314 42.7366C41.9787 42.7181 43.095 42.3616 44.0406 41.7116C44.1396 41.6195 44.2329 41.5214 44.3201 41.418L49.9964 51.2499L44.6562 50.4366ZM45 23.7499C45 20.7832 44.1203 17.8831 42.472 15.4163C40.8238 12.9496 38.4811 11.027 35.7403 9.89169C32.9994 8.75638 29.9834 8.45933 27.0736 9.03811C24.1639 9.61689 21.4912 11.0455 19.3934 13.1433C17.2956 15.2411 15.867 17.9138 15.2882 20.8235C14.7094 23.7332 15.0065 26.7492 16.1418 29.4901C17.2771 32.231 19.1997 34.5737 21.6664 36.2219C24.1332 37.8702 27.0333 38.7499 30 38.7499C33.9769 38.7456 37.7897 37.1638 40.6018 34.3517C43.4139 31.5396 44.9957 27.7268 45 23.7499ZM30 36.2499C27.5277 36.2499 25.111 35.5168 23.0554 34.1433C20.9998 32.7697 19.3976 30.8175 18.4515 28.5334C17.5054 26.2494 17.2579 23.736 17.7402 21.3113C18.2225 18.8865 19.413 16.6592 21.1612 14.9111C22.9093 13.1629 25.1366 11.9724 27.5614 11.4901C29.9861 11.0078 32.4995 11.2553 34.7835 12.2014C37.0676 13.1475 39.0199 14.7496 40.3934 16.8053C41.7669 18.8609 42.5 21.2776 42.5 23.7499C42.4961 27.0639 41.1779 30.2411 38.8345 32.5844C36.4912 34.9278 33.314 36.246 30 36.2499ZM35.6934 18.9599C35.83 19.0509 35.9474 19.1679 36.0388 19.3043C36.1302 19.4407 36.1938 19.5937 36.226 19.7547C36.2582 19.9157 36.2584 20.0815 36.2264 20.2425C36.1945 20.4035 36.1312 20.5567 36.04 20.6933L31.04 28.1933C30.9374 28.347 30.8019 28.4761 30.6434 28.5712C30.4849 28.6663 30.3072 28.7251 30.1233 28.7433C30.0818 28.7474 30.0403 28.7499 30 28.7499C29.6685 28.7498 29.3506 28.6181 29.1162 28.3836L25.3662 24.6336C25.1386 24.3979 25.0126 24.0821 25.0154 23.7544C25.0183 23.4266 25.1497 23.1131 25.3815 22.8814C25.6132 22.6496 25.9268 22.5181 26.2545 22.5153C26.5822 22.5124 26.898 22.6384 27.1338 22.8661L29.8059 25.5383L33.9599 19.3065C34.1439 19.0308 34.4298 18.8394 34.7549 18.7744C35.0799 18.7094 35.4175 18.7761 35.6934 18.9599Z" fill="#0C0E11"/>
</svg>
